<svg width="179" height="330" viewBox="0 0 179 330" fill="none" xmlns="http://www.w3.org/2000/svg">
<path d="M47.8163 139.694C41.5988 136.034 38.8667 135.684 40.6118 138.771C38.8667 135.684 37.6938 138.096 37.5222 145.13C37.6938 138.096 36.6401 135.633 34.7472 138.638C36.6401 135.633 33.8938 135.859 27.5046 139.232C33.8938 135.859 35.5768 133.747 31.9341 133.664C35.5768 133.747 33.9986 131.561 27.7812 127.901C33.9986 131.561 36.7307 131.911 34.9856 128.824C36.7307 131.911 37.9036 129.499 38.0753 122.466C37.9036 129.499 38.9573 131.962 40.8502 128.958C38.9573 131.962 41.7037 131.736 48.0928 128.363C41.7037 131.736 40.0206 133.848 43.6633 133.931C40.0206 133.848 41.5988 136.034 47.8163 139.694Z" fill="#424242"/>
<path d="M138.647 172.277C134.707 169.959 132.982 169.737 134.084 171.693C132.982 169.737 132.236 171.264 132.13 175.719C132.236 171.264 131.571 169.705 130.373 171.608C131.571 169.705 129.83 169.848 125.783 171.985C129.83 169.848 130.895 168.51 128.589 168.458C130.895 168.51 129.899 167.126 125.959 164.807C129.899 167.126 131.624 167.347 130.522 165.392C131.624 167.347 132.37 165.82 132.476 161.365C132.37 165.82 133.035 167.38 134.233 165.477C133.035 167.38 134.776 167.237 138.823 165.1C134.776 167.237 133.711 168.574 136.017 168.627C133.711 168.574 134.707 169.959 138.647 172.277Z" fill="#424242"/>
<path d="M167.789 88.5637C163.854 86.2453 162.12 86.0235 163.226 87.9788C162.12 86.0235 161.377 87.5512 161.273 92.0057C161.377 87.5512 160.711 85.9916 159.512 87.8942C160.711 85.9916 158.972 86.1341 154.922 88.2707C158.972 86.1341 160.04 84.7968 157.728 84.7441C160.04 84.7968 159.038 83.4116 155.103 81.0937C159.038 83.4116 160.772 83.6338 159.666 81.6786C160.772 83.6338 161.515 82.1061 161.619 77.6517C161.515 82.1061 162.175 83.6657 163.375 81.7631C162.175 83.6657 163.92 83.5227 167.965 81.3861C163.92 83.5227 162.852 84.8606 165.163 84.9132C162.852 84.8606 163.854 86.2453 167.789 88.5637Z" fill="#424242"/>
<path d="M113.03 76.3829C112.348 77.55 111.542 78.6402 110.622 79.6356C109.821 80.5051 108.938 81.3033 107.982 82.0137C106.871 82.8448 105.662 83.5607 104.371 84.1432C102.728 84.8895 100.961 85.4181 99.1061 85.6922C98.1452 85.8335 97.1584 85.9079 96.1562 85.9079C94.8181 85.9079 93.5109 85.7771 92.2503 85.5255C91.0517 85.2898 89.8945 84.9459 88.7941 84.5046C87.4767 83.984 86.2315 83.3245 85.0794 82.5473C83.5708 81.5265 82.2173 80.3 81.06 78.9122V78.9098C79.6341 77.196 78.513 75.2333 77.7794 73.0993C77.4022 72.0035 77.1284 70.8649 76.9682 69.6898V69.6873C76.8546 68.8741 76.7977 68.0455 76.7977 67.2014C76.7977 66.6652 76.8184 66.1346 76.87 65.6084C77.025 63.7944 77.4487 62.0553 78.1048 60.4264C78.9469 58.3328 80.1662 56.4219 81.6903 54.7726C82.4911 53.9 83.3745 53.1023 84.3354 52.389C85.4462 51.5579 86.6552 50.8421 87.9416 50.26C89.5794 49.5132 91.3462 48.9851 93.2061 48.71H93.2113C93.9501 48.6027 94.7044 48.5333 95.4742 48.5049C95.4483 48.5158 95.4328 48.5258 95.4018 48.5358C94.2756 49.049 93.2164 49.6774 92.24 50.4062C91.3979 51.0322 90.6229 51.7326 89.9203 52.4968C88.5874 53.946 87.5128 55.6242 86.774 57.4608C86.2005 58.8899 85.8285 60.4164 85.689 62.0093C85.6477 62.4711 85.6219 62.9353 85.6219 63.4075C85.6219 64.1483 85.6787 64.8746 85.7769 65.5875V65.5905C85.9164 66.6218 86.1592 67.6222 86.4898 68.5841C87.1305 70.4571 88.1172 72.1807 89.3675 73.6843V73.6868C90.3801 74.9053 91.5684 75.98 92.9013 76.8756C93.9088 77.558 94.9989 78.1375 96.1562 78.5938C97.1223 78.9816 98.14 79.2841 99.1888 79.4893C100.3 79.71 101.441 79.8252 102.619 79.8252C103.498 79.8252 104.365 79.7613 105.208 79.638C106.835 79.3969 108.39 78.9327 109.831 78.2763C110.963 77.7656 112.022 77.1372 112.999 76.4088C113.009 76.4009 113.019 76.3933 113.03 76.3829Z" fill="#424242"/>
<path d="M89.4984 73.6433C90.5038 74.8446 91.6698 75.8971 92.9706 76.7719C93.9864 77.4564 95.0695 78.0302 96.2044 78.4769C97.1736 78.867 98.1893 79.1654 99.2155 79.3652C101.159 79.7523 103.211 79.8004 105.186 79.5129C106.777 79.2771 108.321 78.8224 109.767 78.1619C110.876 77.6627 111.933 77.0393 112.913 76.3087C113.364 75.5521 113.757 74.7484 114.084 73.9317C114.747 72.2863 115.157 70.5557 115.312 68.7881C115.359 68.2663 115.385 67.7341 115.385 67.2033C115.385 66.3751 115.328 65.5443 115.214 64.7346C115.058 63.5845 114.789 62.4453 114.41 61.3462C113.685 59.2471 112.591 57.3057 111.151 55.5756L111.119 55.5376C109.974 54.1676 108.637 52.9653 107.155 51.9623C105.994 51.1816 104.755 50.5272 103.47 50.0184C102.366 49.5783 101.211 49.2363 100.029 49.0019C98.5521 48.71 97.0025 48.6003 95.5048 48.6344L95.4582 48.6554C94.3491 49.1577 93.2919 49.7821 92.3176 50.5097C91.4884 51.1246 90.7163 51.8226 90.0166 52.5837C88.6692 54.0429 87.6223 55.6998 86.8968 57.509C86.3164 58.9476 85.9536 60.4663 85.8188 62.0216C85.7774 62.4773 85.7566 62.9435 85.7566 63.4092C85.7566 64.1202 85.8033 64.8483 85.9017 65.5724C86.0417 66.5768 86.2801 67.5758 86.6117 68.5452C87.2388 70.385 88.2027 72.0875 89.4673 73.6057L89.4984 73.6433ZM102.615 79.9556C101.449 79.9556 100.288 79.8414 99.1584 79.6171C98.1168 79.4138 97.0906 79.1098 96.1008 78.7142C94.9503 78.2606 93.8516 77.6777 92.8203 76.9822C91.4884 76.0854 90.2913 75.0038 89.26 73.769L89.234 73.7309C87.9592 72.1977 86.9952 70.4806 86.3578 68.6259C86.0209 67.6409 85.7774 66.6259 85.6426 65.6089C85.539 64.8714 85.4872 64.1317 85.4872 63.4092C85.4872 62.936 85.5079 62.4618 85.5493 61.9996C85.6893 60.4203 86.0572 58.8775 86.648 57.4163C87.3839 55.5786 88.4515 53.8951 89.8196 52.4135C90.5296 51.6403 91.3174 50.9313 92.157 50.3059C93.1468 49.5673 94.2196 48.9333 95.3442 48.4216L95.4685 48.379C97.0025 48.3435 98.578 48.4526 100.086 48.7506C101.278 48.9884 102.454 49.3349 103.569 49.7816C104.875 50.2974 106.129 50.9603 107.31 51.752C108.824 52.777 110.187 54.0088 111.358 55.4124L111.384 55.45C112.835 57.195 113.939 59.1514 114.659 61.265C115.043 62.3797 115.317 63.5348 115.473 64.6986C115.592 65.5213 115.649 66.3635 115.649 67.2033C115.649 67.7411 115.628 68.2819 115.576 68.8097C115.421 70.6018 115.006 72.3564 114.333 74.0248C114.001 74.8525 113.597 75.6678 113.141 76.4479L113.12 76.4755C113.104 76.4905 113.089 76.502 113.073 76.513C112.078 77.2536 111.005 77.887 109.886 78.3938C108.409 79.0652 106.839 79.5269 105.222 79.7668C104.367 79.892 103.491 79.9556 102.615 79.9556Z" fill="#424242"/>
<path d="M96.1577 48.0783C97.1376 48.0783 98.1175 48.1477 99.0768 48.2855C94.983 42.3829 98.456 36.2627 101.811 30.3353C103.997 26.4789 106.259 22.4911 106.259 18.7239C106.259 13.9917 104.52 10.8733 102.991 8.12427C102.083 6.49843 101.252 5.00642 100.862 3.39049C98.6766 11.6129 95.1984 15.9699 92.0896 19.865C89.7913 22.7459 87.8059 25.2337 86.7593 28.8017C83.8454 38.7168 90.8635 46.0574 93.3464 48.2696C94.275 48.1422 95.2189 48.0783 96.1577 48.0783ZM101.134 49.5118L99.9746 49.2828C97.7891 48.8516 95.4908 48.796 93.2695 49.1222L93.2079 49.1271H93.0437L92.9155 49.0191C90.4889 46.8991 82.8195 39.1585 85.9283 28.5741C87.021 24.8516 89.1551 22.1823 91.4073 19.3559C94.8444 15.0534 98.7331 10.1764 100.759 0L101.611 0.148705C101.103 2.97906 102.329 5.17991 103.75 7.72772C105.33 10.5645 107.121 13.782 107.121 18.7239C107.121 22.7043 104.807 26.7872 102.57 30.7353C99.0255 36.9839 95.6858 42.8855 100.395 48.6151L101.134 49.5118Z" fill="#424242"/>
<path d="M75.7166 27.5744C76.941 32.1646 76.5044 35.2934 76.113 38.1017C75.817 40.235 75.561 42.077 76.113 44.19C77.4027 49.1235 81.6731 51.1434 84.2524 51.9269C85.1406 51.2753 86.094 50.6968 87.0826 50.2023C84.1972 48.0728 84.1119 44.3224 84.0266 40.6884C83.9613 38.0876 83.9011 35.3981 82.757 33.4902C81.3218 31.0814 79.4802 29.9827 77.8543 29.014C77.0916 28.5602 76.3539 28.1189 75.7166 27.5744ZM84.423 52.8491L84.2122 52.7876C81.4874 52.0006 76.7052 49.8629 75.28 44.3942C74.6879 42.1255 74.9639 40.1173 75.26 37.9911C75.7015 34.7969 76.2084 31.1769 74.1259 25.3732L74.9388 25.0929C75.5309 26.6464 76.7553 27.3781 78.311 28.3042C80.0171 29.3258 81.9591 30.4831 83.5047 33.0732C84.7592 35.1663 84.8244 37.964 84.8846 40.6695C84.975 44.495 85.0603 48.1087 88.1615 49.9017L88.859 50.3041L88.1213 50.6367C86.8768 51.2011 85.6925 51.9012 84.5986 52.7177L84.423 52.8491Z" fill="#424242"/>
<path d="M41.3193 31.3579C47.5953 37.2967 49.7621 42.3852 51.6947 46.9341C53.1292 50.2992 54.3694 53.2056 57.0392 55.8665C64.4708 63.2622 74.5572 61.058 77.7799 60.0882C78.4971 58.3595 79.4684 56.753 80.6639 55.2981C73.3269 55.7755 69.5763 49.8107 65.9452 44.0359C63.5792 40.2787 61.1336 36.3934 57.7615 34.5097C53.5177 32.1443 49.8567 32.0388 46.624 31.9455C44.7113 31.8906 42.963 31.8401 41.3193 31.3579ZM70.4729 61.9965C66.1145 61.9965 60.8297 60.8346 56.4216 56.4469C53.6322 53.6705 52.3023 50.5528 50.9027 47.2508C48.7609 42.2259 46.3351 36.5305 38.2262 29.7456L38.789 29.1108C41.0703 30.9516 43.6554 31.0262 46.6489 31.1124C49.9812 31.2086 53.7617 31.3174 58.1898 33.7873C61.7611 35.7783 64.2616 39.756 66.6823 43.6028C70.5127 49.6913 74.1338 55.4415 81.6252 54.3592L82.8057 54.1888L82.0137 55.0488C80.5045 56.6837 79.324 58.5433 78.5121 60.5767L78.4324 60.7615L78.2431 60.8221C76.8584 61.2534 73.9595 61.9965 70.4729 61.9965Z" fill="#424242"/>
<path d="M50.4203 64.4946C55.1455 65.7663 57.7332 67.6943 60.0537 69.4245C61.8151 70.7396 63.339 71.8745 65.5111 72.4702C70.5727 73.858 74.521 71.2951 76.5149 69.5306C76.416 68.7638 76.3665 67.9812 76.3665 67.2019C76.3665 66.9003 76.3715 66.5977 76.3863 66.2979C73.0317 67.6528 69.6276 65.8495 66.3275 64.1026C63.9674 62.8525 61.5232 61.5593 59.2373 61.5593C56.3676 61.5593 54.4627 62.5499 52.7804 63.4243C51.9937 63.834 51.2268 64.2322 50.4203 64.4946ZM68.4154 73.7031C67.4209 73.7031 66.3769 73.5731 65.2736 73.2724C62.9481 72.6323 61.2857 71.3951 59.5242 70.0847C56.8871 68.1165 53.8937 65.8853 47.6495 64.7251L47.8079 63.9052C49.4951 64.1872 50.7617 63.5271 52.3697 62.6905C54.141 61.7697 56.1449 60.7256 59.2373 60.7256C61.7458 60.7256 64.2889 62.0709 66.743 63.3717C70.2164 65.2103 73.5017 66.9467 76.6584 65.2447L77.366 64.8613L77.2967 65.6454C77.2472 66.1555 77.2274 66.6789 77.2274 67.2019C77.2274 68.0161 77.2868 68.8341 77.3957 69.6315L77.4006 69.6903V69.8696L77.267 69.9934C75.6046 71.5093 72.4924 73.7031 68.4154 73.7031Z" fill="#424242"/>
<path d="M77.7387 74.2165C74.4964 80.5917 67.2757 80.7498 60.2838 80.9026C55.7386 81.0021 51.0292 81.1044 47.6576 82.9874C43.4157 85.3534 41.4863 88.367 39.7905 91.0261C38.786 92.5973 37.861 94.0382 36.6079 95.1727C45.0717 92.888 50.716 93.6198 55.7585 94.2732C59.4931 94.7571 62.7155 95.1751 66.4402 94.267C76.7988 91.7454 79.8572 82.1961 80.5981 79.0142C79.3996 77.5497 78.4448 75.9401 77.7387 74.2165ZM33.6241 96.9505L33.3357 96.1654C36.1255 95.1727 37.483 93.048 39.0545 90.5884C40.8049 87.8457 42.7942 84.7364 47.225 82.2658C50.7906 80.276 55.6093 80.1713 60.2639 80.0694C67.6387 79.908 74.6008 79.7562 77.3806 72.9461L77.8133 71.8771L78.1912 72.9677C78.8974 75.0338 79.9765 76.9448 81.3987 78.6481L81.4932 78.7625L81.4833 78.9994C80.797 82.0904 77.7089 92.3839 66.6491 95.0752C62.7653 96.0227 59.3091 95.5739 55.6441 95.0992C50.0745 94.3775 43.7589 93.5592 33.6241 96.9505Z" fill="#424242"/>
<path d="M85.4567 83.2948C84.9942 86.7762 81.6763 88.7254 78.4588 90.614C76.1614 91.9653 73.7835 93.3628 72.6423 95.2703C71.2045 97.6781 71.1392 99.7673 71.0839 101.61C71.0587 102.473 71.0286 103.313 70.8577 104.12C74.3616 100.802 77.388 99.6021 80.0977 98.5248C82.1588 97.7053 83.9385 96.9986 85.5573 95.4811C89.3378 91.9362 89.0059 87.3551 88.4177 84.8079C87.3922 84.3882 86.4018 83.8811 85.4567 83.2948ZM69.6813 106.553L69.0278 106.013C70.1237 104.741 70.1639 103.348 70.2192 101.585C70.2795 99.6439 70.3449 97.4435 71.8933 94.8535C73.1451 92.7615 75.6185 91.3076 78.0164 89.9019C81.3998 87.9133 84.597 86.0349 84.6473 82.5419L84.6624 81.756L85.3311 82.2068C86.4622 82.9733 87.6838 83.6169 88.9557 84.1196L89.1567 84.2012L89.2121 84.4091C89.8706 87.0807 90.3482 92.1494 86.1555 96.0795C84.4211 97.7087 82.4806 98.4796 80.4245 99.2951C77.3428 100.521 73.8439 101.91 69.6813 106.553Z" fill="#424242"/>
<path d="M93.2369 86.1164C97.3321 92.0174 93.8645 98.1386 90.4999 104.067C88.3185 107.923 86.0548 111.912 86.0548 115.678C86.0548 120.41 87.7937 123.53 89.3269 126.282C90.2375 127.907 91.0658 129.398 91.4568 131.015C93.6382 122.79 97.116 118.432 100.229 114.537C102.528 111.656 104.514 109.168 105.559 105.601C108.481 95.672 101.453 88.3414 98.9681 86.1328C97.0646 86.3927 95.1147 86.3858 93.2369 86.1164ZM91.5597 134.405L90.7057 134.255C91.215 131.423 89.9905 129.224 88.5706 126.677C86.9911 123.838 85.1956 120.621 85.1956 115.678C85.1956 111.698 87.5108 107.615 89.7487 103.667C93.2883 97.4163 96.6324 91.5128 91.9147 85.7848L91.1739 84.8845L92.3417 85.1172C94.5128 85.5491 96.8125 85.6073 99.0453 85.2797L99.2459 85.2499L99.3952 85.3826C101.823 87.4992 109.505 95.2296 106.392 105.828C105.296 109.55 103.166 112.22 100.913 115.046C97.4762 119.349 93.5816 124.225 91.5597 134.405Z" fill="#424242"/>
<path d="M105.23 84.1998C108.125 86.3283 108.213 90.0791 108.296 93.7144C108.359 96.3145 108.421 99.003 109.56 100.912C110.999 103.32 112.84 104.419 114.461 105.388C115.22 105.842 115.964 106.283 116.603 106.827C115.381 102.237 115.813 99.108 116.203 96.2999C116.499 94.1669 116.754 92.3246 116.203 90.2112C114.919 85.2786 110.646 83.2586 108.068 82.4746C107.174 83.127 106.222 83.705 105.23 84.1998ZM117.383 109.309C116.79 107.755 115.563 107.023 114.009 106.097C112.299 105.076 110.36 103.919 108.816 101.328C107.564 99.235 107.496 96.438 107.434 93.7329C107.345 89.9063 107.262 86.2921 104.154 84.5006L103.457 84.0978L104.195 83.7648C105.438 83.2018 106.623 82.5012 107.719 81.6835L107.896 81.5529L108.109 81.6142C110.833 82.4017 115.615 84.5393 117.04 90.0078C117.632 92.2764 117.351 94.2844 117.06 96.4104C116.619 99.6047 116.114 103.225 118.194 109.028L117.383 109.309Z" fill="#424242"/>
<path d="M112.472 79.0812C119.278 79.0812 122.881 84.8112 126.376 90.3689C128.738 94.1252 131.182 98.0093 134.557 99.8929C138.8 102.26 142.468 102.366 145.697 102.459C147.61 102.514 149.36 102.564 151.002 103.046C144.722 97.1062 142.56 92.017 140.62 87.4681C139.19 84.1029 137.949 81.1968 135.278 78.5357C127.839 71.1346 117.761 73.3428 114.537 74.314C113.816 76.0437 112.846 77.6515 111.649 79.1084C111.931 79.0901 112.202 79.0812 112.472 79.0812ZM153.532 105.292C151.246 103.452 148.667 103.378 145.676 103.292C142.338 103.195 138.556 103.086 134.124 100.615C130.559 98.6244 128.061 94.6477 125.639 90.8019C121.808 84.7112 118.183 78.9566 110.69 80.0481L109.509 80.2193L110.3 79.3587C111.811 77.7211 112.987 75.8595 113.811 73.8256L113.881 73.6413L114.076 73.58C117.192 72.6089 127.958 70.054 135.896 77.9551C138.686 80.7313 140.014 83.8495 141.417 87.1508C143.557 92.1756 145.984 97.8716 154.09 104.656L153.532 105.292Z" fill="#424242"/>
<path d="M118.396 67.6354C120.942 67.6354 123.494 68.9851 125.986 70.3032C128.345 71.553 130.789 72.8453 133.073 72.8453C135.946 72.8453 137.854 71.8545 139.532 70.9802C140.32 70.571 141.087 70.1727 141.896 69.9101C137.168 68.6386 134.584 66.7108 132.258 64.9799C130.494 63.6654 128.972 62.5301 126.801 61.9344C121.741 60.5464 117.79 63.1096 115.801 64.8742C115.898 65.6403 115.946 66.4229 115.946 67.2029C115.946 67.5053 115.941 67.8083 115.925 68.1093C116.745 67.7778 117.57 67.6354 118.396 67.6354ZM133.073 73.6786C130.564 73.6786 128.029 72.3346 125.568 71.0346C122.095 69.1964 118.814 67.4603 115.657 69.1622L114.944 69.546L115.013 68.7619C115.062 68.2496 115.089 67.7249 115.089 67.2029C115.089 66.3876 115.03 65.5699 114.917 64.7733L114.912 64.7173V64.5376L115.046 64.4112C117.12 62.5265 121.425 59.5939 127.037 61.1327C129.369 61.7723 131.03 63.0097 132.783 64.3201C135.426 66.2882 138.422 68.519 144.662 69.6797L144.507 70.4995C142.818 70.2183 141.548 70.8787 139.945 71.7141C138.171 72.635 136.166 73.6786 133.073 73.6786Z" fill="#424242"/>
<path d="M111.717 55.3895C112.916 56.8551 113.869 58.4644 114.572 60.1874C117.819 53.8124 125.033 53.6544 132.028 53.5018C136.578 53.4023 141.28 53.2996 144.658 51.4166C148.896 49.0503 150.825 46.0365 152.525 43.3776C153.527 41.8072 154.448 40.3664 155.707 39.2325C147.24 41.5182 141.596 40.7865 136.551 40.1321C132.818 39.6489 129.599 39.2309 125.872 40.1374C115.52 42.6585 112.458 52.2083 111.717 55.3895ZM114.501 62.5273L114.125 61.436C113.417 59.3703 112.338 57.4594 110.916 55.7559L110.824 55.6417L110.829 55.4048C111.516 52.3141 114.605 42.0199 125.665 39.3293C129.544 38.3833 133.004 38.8319 136.665 39.3062C142.239 40.029 148.553 40.8475 158.687 37.4537L158.981 38.2391C156.192 39.2314 154.83 41.3555 153.26 43.815C151.506 46.5587 149.517 49.6678 145.088 52.1383C141.519 54.1282 136.703 54.2329 132.05 54.3345C124.679 54.4956 117.716 54.6478 114.937 61.4581L114.501 62.5273Z" fill="#424242"/>
<path d="M103.892 49.597C104.917 50.0149 105.911 50.5226 106.857 51.1108C107.318 47.6285 110.633 45.6797 113.854 43.7905C116.155 42.4394 118.535 41.0419 119.675 39.1345C121.107 36.7259 121.175 34.6361 121.233 32.7923C121.259 31.9299 121.285 31.0901 121.453 30.2832C117.949 33.6008 114.926 34.8023 112.218 35.88C110.157 36.6996 108.379 37.4075 106.758 38.9263C102.977 42.4707 103.307 47.051 103.892 49.597ZM107.652 52.6478L106.983 52.1981C105.848 51.4296 104.625 50.7859 103.359 50.2852L103.155 50.2039L103.103 49.9957C102.444 47.3248 101.963 42.258 106.157 38.3281C107.893 36.6976 109.833 35.926 111.888 35.109C114.973 33.8837 118.467 32.4937 122.629 27.8518L123.288 28.3915C122.19 29.6632 122.148 31.0553 122.096 32.8171C122.033 34.7594 121.965 36.9608 120.417 39.5513C119.167 41.6436 116.694 43.0973 114.299 44.5029C110.915 46.4912 107.715 48.3697 107.663 51.8631L107.652 52.6478Z" fill="#424242"/>
<path d="M43.9215 307.921C42.0617 307.921 40.2069 307.75 38.3768 307.337C37.8065 307.207 37.261 307.052 36.7501 306.87L37.0428 306.086C37.5238 306.258 38.0396 306.404 38.5752 306.525C45.0324 307.982 51.9261 306.305 58.0114 304.825C60.6696 304.177 63.189 303.565 65.3711 303.304C71.6101 302.564 73.4154 303.641 77.3582 306C77.9533 306.35 78.5881 306.731 79.3023 307.14L78.8609 307.858C78.1467 307.445 77.502 307.061 76.9069 306.708C73.0236 304.387 71.4168 303.428 65.4753 304.133C63.3477 304.387 60.8531 304.994 58.2197 305.635C53.7413 306.724 48.8264 307.921 43.9215 307.921Z" fill="#424242"/>
<path d="M32.9498 297.379L32.4906 297.172C32.992 296.143 33.7043 295.261 34.487 294.689L34.7916 295.08C34.0699 295.604 33.4138 296.42 32.9498 297.379Z" fill="#424242"/>
<path d="M39.3343 305.502C39.3343 305.502 38.3207 306.223 36.897 306.477C36.1521 306.614 35.2989 306.62 34.4126 306.334C31.8292 305.502 29.9859 303.006 30.5988 300.272C30.9523 298.704 31.6595 297.824 32.7154 297.275C33.5027 296.865 34.4786 296.643 35.643 296.455C35.643 296.455 35.4639 301.514 39.3343 305.502Z" fill="#424242"/>
<path d="M35.1632 297.02C34.3698 297.166 33.5873 297.363 32.9515 297.693C31.9571 298.211 31.3865 299.036 31.0877 300.373C30.5606 302.704 32.0604 305.073 34.5709 305.883C35.2773 306.108 36.0272 306.153 36.8042 306.01L36.8096 306.006C37.5487 305.876 38.179 305.603 38.5757 305.393C35.7065 302.157 35.2338 298.439 35.1632 297.02ZM32.8374 306.137C33.0494 306.371 33.2558 306.607 33.4623 306.838C36.3097 310.061 39.2549 313.396 44.9172 315.275C48.0906 316.336 52.7476 318.934 57.6816 321.683C64.322 325.389 71.2014 329.231 74.1303 329.041C79.0916 328.736 87.5523 324.167 96.5075 319.331C108 313.126 121.026 306.092 130.22 306.092C135.078 306.092 143.397 308.381 154.966 312.9L145.278 287.065C139.501 285.604 134.616 284.283 130.301 283.115C116.678 279.431 109.131 277.389 97.904 277.389C97.8279 277.389 97.7464 277.389 97.6703 277.389C83.1833 277.424 71.647 283.207 66.7183 285.674C65.0447 286.515 64.36 286.849 63.9307 286.893C60.1161 288.221 57.9805 288.954 51.2261 289.923C48.2319 290.351 45.1563 291.101 42.0752 292.158C39.0811 293.187 36.7825 294.263 35.386 294.984C35.2284 295.07 35.0762 295.162 34.9404 295.264L34.6578 295.473L34.3643 295.279C31.1257 293.155 23.1921 289.697 17.4321 288.249C17.2038 288.196 16.9919 288.154 16.78 288.119C14.552 287.735 12.6665 288.055 12.0742 288.913C11.5797 289.63 12.0741 290.691 12.5849 291.453C13.1827 292.358 16.6822 294.502 20.0621 296.578C23.98 298.979 28.3978 301.691 30.5986 303.761C30.0335 302.669 29.8379 301.415 30.1204 300.17C30.4791 298.56 31.2344 297.506 32.4842 296.855C33.3971 296.378 34.5057 296.156 35.5653 295.985L36.1576 295.889L36.1413 296.47C36.1358 296.518 36.0217 301.386 39.6951 305.174L40.0755 305.568L39.6299 305.886C39.5864 305.917 38.5105 306.673 36.989 306.943C36.0435 307.118 35.1251 307.064 34.2611 306.784C33.7503 306.622 33.2721 306.4 32.8374 306.137ZM73.9347 330C70.6199 330 64.0883 326.358 57.1871 322.509C52.2965 319.782 47.6831 317.206 44.5911 316.177C38.679 314.211 35.6468 310.776 32.7124 307.454C31.843 306.473 31.0225 305.543 30.1313 304.654C28.1044 302.637 23.5507 299.846 19.535 297.382C15.1552 294.696 12.4382 292.997 11.7535 291.968C10.5472 290.151 10.8189 289.015 11.2536 288.382C12.248 286.944 14.8455 286.817 16.9484 287.179C17.1766 287.217 17.4158 287.265 17.6712 287.325C22.9041 288.64 30.8431 291.917 34.636 294.308C34.723 294.254 34.8208 294.2 34.9186 294.146C36.3478 293.406 38.6953 292.308 41.7438 291.263C44.8846 290.183 48.0254 289.418 51.0793 288.983C57.7794 288.021 59.8661 287.293 63.6644 285.976L63.7459 285.947H63.8329C64.0829 285.925 65.1425 285.391 66.2673 284.829C71.2557 282.327 82.9388 276.471 97.6703 276.437C109.174 276.408 117.222 278.586 130.568 282.2C134.942 283.381 139.903 284.724 145.777 286.207L146.027 286.271L156.651 314.593L155.624 314.186C143.636 309.448 135.094 307.045 130.22 307.045C121.281 307.045 108.375 314.014 96.9911 320.162C87.5414 325.265 79.3741 329.673 74.1955 329.994C74.1086 329.997 74.0216 330 73.9347 330Z" fill="#424242"/>
<path d="M16.862 287.646V287.649C13.3748 287.049 9.73195 288.033 12.1712 291.71C9.95162 290.615 7.99294 288.227 9.10042 287.217C10.2033 286.207 13.7637 286.734 16.862 287.646Z" fill="#424242"/>
<path d="M17.6648 287.564C23.4061 289.015 31.2631 292.432 34.6332 294.588C34.7657 294.499 34.8982 294.423 35.0355 294.353C36.3797 293.654 38.5522 292.632 41.3921 291.632C38.0979 289.237 28.4659 284.328 25.7964 283.436L25.4461 283.321C24.7078 283.087 23.5907 282.731 22.3554 282.464C19.7853 281.911 17.9914 282.035 17.0211 282.833C15.2604 284.29 16.2307 285.992 16.5951 286.51L16.6093 286.529C16.8886 286.922 17.253 287.278 17.6648 287.564ZM34.6474 295.185L34.4959 295.087C31.2395 292.953 23.2736 289.476 17.4944 288.025L17.4092 287.986C16.9454 287.669 16.5289 287.269 16.207 286.824L16.1928 286.802C15.3408 285.611 15.0285 283.846 16.6993 282.464C17.7879 281.559 19.7285 281.401 22.4642 281.988C23.7233 282.261 24.8545 282.623 25.6023 282.861L25.9573 282.972C28.7546 283.912 39.1486 289.228 42.0642 291.524L42.4145 291.797L41.9885 291.94C38.9687 292.978 36.6684 294.058 35.2721 294.782C35.1112 294.864 34.955 294.963 34.7846 295.08L34.6474 295.185Z" fill="#424242"/>
<path d="M22.4117 282.226C20.4016 281.793 18.1148 281.613 16.8607 282.648C15.367 283.886 15.5468 285.468 16.3997 286.665C14.3112 285.061 13.0618 282.733 14.0853 281.562C15.4684 279.977 18.4744 280.844 22.4117 282.226Z" fill="#424242"/>
<path d="M52.6337 289.517C50.8532 288.161 46.9563 286.672 43.8225 285.478C42.4595 284.957 41.1638 284.462 40.1847 284.033L40.5398 283.274C41.4997 283.693 42.7811 284.185 44.144 284.703C47.489 285.982 51.2851 287.431 53.1712 288.863L52.6337 289.517Z" fill="#424242"/>
<path d="M40.2562 283.873C40.1948 283.844 40.1334 283.819 40.0768 283.791L40.2892 283.352C40.3459 283.378 40.4025 283.403 40.4592 283.428L40.2562 283.873Z" fill="#424242"/>
<path d="M42.5913 280.508C42.0374 280.498 41.5734 280.536 41.2183 280.637C39.4241 281.257 39.2347 282.343 39.7176 283.076C39.4903 282.975 37.857 282.219 37.7765 281.504C37.6582 280.498 39.1021 280.056 42.5913 280.508Z" fill="#424242"/>
<path d="M26.2467 282.889C29.2731 283.988 38.9078 288.926 41.9878 291.24C45.0483 290.205 48.1089 289.465 51.0914 289.04C57.0565 288.186 59.3713 287.512 62.5098 286.439C62.0809 286.293 61.5595 286.112 60.9454 285.902C56.3498 284.318 46.793 281.019 42.5824 280.927C42.056 280.914 41.6418 280.952 41.3396 281.038C40.6135 281.289 40.1213 281.66 39.9702 282.079C39.8484 282.419 39.9897 282.711 40.0823 282.854L40.1115 282.895C40.2041 283.029 40.3308 283.146 40.477 283.232H40.5599L40.6963 283.388L40.5161 283.53L40.3601 283.841L40.3552 284.067L40.2334 284.058L39.3805 283.664C36.9633 282.539 33.9662 281.146 31.1298 280.666L31.0909 280.663C30.7351 280.603 30.394 280.558 30.0626 280.533C28.5664 280.412 27.3773 280.758 26.7194 281.508C26.2857 282.003 26.1931 282.539 26.2467 282.889ZM41.827 292.18L41.637 292.034C38.7616 289.77 28.5031 284.524 25.7398 283.597L25.5449 283.53L25.4767 283.343C25.4572 283.292 25.4426 283.242 25.4279 283.187L25.4182 283.137C25.2574 282.435 25.501 281.609 26.0615 280.968C26.5537 280.412 27.7282 279.507 30.1357 279.704C30.4768 279.729 30.8374 279.774 31.2029 279.834L31.2419 279.84C33.9369 280.288 36.7294 281.514 39.0784 282.597C39.0394 282.333 39.0638 282.067 39.1515 281.806C39.3221 281.339 39.7899 280.688 41.0716 280.247C41.4858 280.126 41.9781 280.082 42.6019 280.091C46.9538 280.19 56.2474 283.394 61.2378 285.115C62.5487 285.569 63.5868 285.928 63.9426 286.02L65.2779 286.363L63.9816 286.814C60.117 288.157 57.9921 288.894 51.2132 289.862C48.2161 290.294 45.136 291.047 42.056 292.104L41.827 292.18Z" fill="#424242"/>
<path d="M31.165 280.25C30.8058 280.19 30.4514 280.145 30.1016 280.117C26.5848 279.834 25.5587 281.974 25.8479 283.085V283.089L25.8432 283.092C24.9384 282.596 23.2593 281.368 24.1921 280.215C25.2415 278.92 27.8534 278.945 31.165 280.25Z" fill="#424242"/>
<path d="M26.7408 243.774C28.3437 245.012 35.2062 250.132 45.3453 255.193C56.0277 260.525 72.6272 266.879 91.0633 266.879C109.505 266.879 126.104 260.525 136.781 255.193C146.926 250.132 153.788 245.012 155.391 243.774C153.788 242.539 146.926 237.42 136.781 232.358C126.104 227.027 109.505 220.673 91.0633 220.673C72.6163 220.673 56.0114 227.03 45.329 232.365C35.1954 237.427 28.3383 242.539 26.7408 243.774ZM91.0633 267.609C72.4696 267.609 55.7397 261.204 44.9812 255.834C33.3317 250.017 25.9692 244.114 25.8986 244.057L25.5508 243.774L25.8986 243.495C25.9692 243.437 33.3317 237.534 44.9812 231.717C55.7397 226.344 72.4696 219.942 91.0633 219.942C109.662 219.942 126.392 226.344 137.151 231.717C148.8 237.534 156.163 243.437 156.233 243.495L156.581 243.774L156.233 244.057C156.163 244.114 148.8 250.017 137.151 255.834C126.392 261.204 109.662 267.609 91.0633 267.609Z" fill="#424242"/>
<path d="M158.315 241.78C150.662 236.032 123.198 217.281 91.0655 217.281C59.8703 217.281 33.6973 234.378 23.8927 241.725L23.4297 241.151C27.7165 237.938 36.6768 231.745 48.5405 226.398C63.035 219.863 77.339 216.551 91.0655 216.551C104.825 216.551 119.167 219.879 133.689 226.439C145.552 231.803 154.496 237.991 158.778 241.205L158.315 241.78Z" fill="#424242"/>
<path d="M19.9775 239.862L19.502 239.294C30.0765 231.05 58.2259 211.88 91.0642 211.88C104.896 211.88 119.323 215.249 133.936 221.892C146.057 227.405 155.713 234 161.681 238.564L161.211 239.135C150.784 231.161 123.072 212.611 91.0642 212.611C58.4609 212.611 30.4919 231.67 19.9775 239.862Z" fill="#424242"/>
<path d="M91.0622 221.074C78.106 221.074 67.5639 231.258 67.5639 243.775C67.5639 256.296 78.106 266.479 91.0622 266.479C104.024 266.479 114.561 256.296 114.561 243.775C114.561 231.258 104.024 221.074 91.0622 221.074ZM91.0622 267.21C77.6915 267.21 66.8075 256.699 66.8075 243.775C66.8075 230.854 77.6915 220.344 91.0622 220.344C104.433 220.344 115.317 230.854 115.317 243.775C115.317 256.699 104.433 267.21 91.0622 267.21Z" fill="#424242"/>
<path d="M97.789 243.774C97.789 247.362 94.7808 250.271 91.0675 250.271C87.3541 250.271 84.3459 247.362 84.3459 243.774C84.3459 240.189 87.3541 237.28 91.0675 237.28C94.7808 237.28 97.789 240.189 97.789 243.774Z" fill="#424242"/>
<path d="M19.2332 239.833L1.99564 222.851L2.5378 222.339L19.7708 239.322L19.2332 239.833Z" fill="#424242"/>
<path d="M90.975 212.245H90.2154V145.819H90.975V212.245Z" fill="#424242"/>
<path d="M65.9807 215.78L59.0236 192.117L59.751 191.917L66.7082 215.58L65.9807 215.78Z" fill="#424242"/>
<path d="M41.3263 225.579L25.8398 205.993L26.4405 205.548L41.9271 225.134L41.3263 225.579Z" fill="#424242"/>
<path d="M161.763 239.094L161.223 238.583L178.46 221.601L179 222.109L161.763 239.094Z" fill="#424242"/>
<path d="M115.198 215.793L114.483 215.567L121.571 194.495L122.292 194.721L115.198 215.793Z" fill="#424242"/>
<path d="M140.442 225.76L139.839 225.321L155.512 205.18L156.115 205.621L140.442 225.76Z" fill="#424242"/>
<path d="M0 221.3C0 220.48 0.687217 219.817 1.53167 219.817C2.38061 219.817 3.06786 220.48 3.06786 221.3C3.06786 222.118 2.38061 222.783 1.53167 222.783C0.687217 222.783 0 222.118 0 221.3Z" fill="#424242"/>
<path d="M23.6598 204.573C23.6598 203.754 24.3461 203.09 25.1947 203.09C26.0432 203.09 26.7295 203.754 26.7295 204.573C26.7295 205.393 26.0432 206.056 25.1947 206.056C24.3461 206.056 23.6598 205.393 23.6598 204.573Z" fill="#424242"/>
<path d="M157.529 204.573C157.529 203.753 156.844 203.09 155.995 203.09C155.147 203.09 154.462 203.753 154.462 204.573C154.462 205.392 155.147 206.056 155.995 206.056C156.844 206.056 157.529 205.392 157.529 204.573Z" fill="#424242"/>
<path d="M123.866 193.163C123.866 192.344 123.181 191.68 122.333 191.68C121.486 191.68 120.795 192.344 120.795 193.163C120.795 193.983 121.486 194.646 122.333 194.646C123.181 194.646 123.866 193.983 123.866 193.163Z" fill="#424242"/>
<path d="M57.6151 191.31C57.6151 190.491 58.3031 189.827 59.151 189.827C59.9989 189.827 60.687 190.491 60.687 191.31C60.687 192.129 59.9989 192.793 59.151 192.793C58.3031 192.793 57.6151 192.129 57.6151 191.31Z" fill="#424242"/>
<path d="M89.0585 144.382C89.0585 143.563 89.7487 142.899 90.5951 142.899C91.4415 142.899 92.1267 143.563 92.1267 144.382C92.1267 145.201 91.4415 145.865 90.5951 145.865C89.7487 145.865 89.0585 145.201 89.0585 144.382Z" fill="#424242"/>
<path d="M75.5122 196.393L77.3669 200.216L79.2165 204.039L74.4312 204.77L75.5122 196.393Z" fill="#424242"/>
<path d="M45.6277 204.05L48.4909 207.244L51.3445 210.436L46.9444 212.398L46.2884 208.222L45.6277 204.05Z" fill="#424242"/>
<path d="M19.2288 219.2L22.6011 221.883L25.9688 224.57L23.9723 225.894L21.9711 227.215L19.2288 219.2Z" fill="#424242"/>
<path d="M105.675 196.394L101.972 204.041L106.756 204.771L106.218 200.582L105.675 196.394Z" fill="#424242"/>
<path d="M135.555 204.05L129.842 210.436L132.038 211.417L134.24 212.398L135.555 204.05Z" fill="#424242"/>
<path d="M161.96 219.199L158.587 221.882L155.219 224.569L157.215 225.893L159.221 227.214L160.587 223.206L161.96 219.199Z" fill="#424242"/>
<path d="M38.2843 293.975C38.2843 294.734 37.6488 295.353 36.8626 295.353C36.0717 295.353 35.4361 294.734 35.4361 293.975C35.4361 293.213 36.0717 292.597 36.8626 292.597C37.6488 292.597 38.2843 293.213 38.2843 293.975Z" fill="#424242"/>
<path d="M14.4835 234.156C14.4835 234.359 14.3101 234.525 14.1003 234.525C13.8904 234.525 13.7171 234.359 13.7171 234.156C13.7171 233.953 13.8904 233.788 14.1003 233.788C14.3101 233.788 14.4835 233.953 14.4835 234.156Z" fill="#424242"/>
</svg>
