<svg width="202" height="330" viewBox="0 0 202 330" fill="none" xmlns="http://www.w3.org/2000/svg">
<path d="M99.9102 48.2883C99.9102 43.6147 101.208 14.8013 107.713 14.8013C101.208 14.8013 99.9102 5.19403 99.9102 0C99.9102 5.19403 98.6122 14.8013 92.1078 14.8013C98.6122 14.8013 99.9102 43.6147 99.9102 48.2883Z" fill="#424242"/>
<path d="M100.18 80.77H99.6357V62.5804H100.18V80.77Z" fill="#424242"/>
<path d="M100.18 198.318H99.6357V180.129H100.18V198.318Z" fill="#424242"/>
<path d="M90.9976 81.5709L84.3069 43.685L84.8427 43.5899L91.5334 81.4758L90.9976 81.5709Z" fill="#424242"/>
<path d="M114.975 217.309L108.282 179.42L108.818 179.328L115.511 217.214L114.975 217.309Z" fill="#424242"/>
<path d="M82.7268 83.7916L76.493 66.6988L77.0043 66.5142L83.2381 83.6043L82.7268 83.7916Z" fill="#424242"/>
<path d="M123.004 194.251L116.77 177.158L117.282 176.974L123.513 194.064L123.004 194.251Z" fill="#424242"/>
<path d="M74.8829 87.4947L55.6132 54.1752L56.0837 53.9037L75.3534 87.2232L74.8829 87.4947Z" fill="#424242"/>
<path d="M143.923 206.86L124.651 173.542L125.124 173.27L144.394 206.588L143.923 206.86Z" fill="#424242"/>
<path d="M67.8713 92.4032L56.1571 78.4705L56.5733 78.1203L68.2874 92.0556L67.8713 92.4032Z" fill="#424242"/>
<path d="M143.566 182.451L131.855 168.519L132.27 168.168L143.981 182.103L143.566 182.451Z" fill="#424242"/>
<path d="M61.7708 98.5605L32.2448 73.8308L32.5957 73.4154L62.1189 98.1451L61.7708 98.5605Z" fill="#424242"/>
<path d="M167.547 187.157L138.019 162.429L138.372 162.013L167.894 186.742L167.547 187.157Z" fill="#424242"/>
<path d="M56.8616 105.568L41.0814 96.4755L41.3533 96.0031L57.1336 105.098L56.8616 105.568Z" fill="#424242"/>
<path d="M158.844 164.343L143.063 155.249L143.336 154.779L159.116 163.872L158.844 164.343Z" fill="#424242"/>
<path d="M53.2388 113.438L17.0222 100.279L17.2071 99.7686L53.4238 112.928L53.2388 113.438Z" fill="#424242"/>
<path d="M182.992 160.578L146.776 147.421L146.961 146.911L183.18 160.067L182.992 160.578Z" fill="#424242"/>
<path d="M51.0277 121.699L33.0825 118.539L33.1777 118.004L51.1229 121.164L51.0277 121.699Z" fill="#424242"/>
<path d="M167.001 142.108L149.059 138.95L149.151 138.416L167.096 141.575L167.001 142.108Z" fill="#424242"/>
<path d="M50.3205 130.33H11.7784V129.787H50.3205V130.33Z" fill="#424242"/>
<path d="M188.402 130.33H149.859V129.787H188.402V130.33Z" fill="#424242"/>
<path d="M33.1287 142.006L33.0335 141.472L50.9787 138.311L51.0739 138.846L33.1287 142.006Z" fill="#424242"/>
<path d="M149.101 121.591L149.006 121.058L166.952 117.899L167.047 118.433L149.101 121.591Z" fill="#424242"/>
<path d="M17.1473 160.356L16.9623 159.846L53.179 146.69L53.3639 147.2L17.1473 160.356Z" fill="#424242"/>
<path d="M146.901 113.214L146.715 112.704L182.933 99.548L183.118 100.058L146.901 113.214Z" fill="#424242"/>
<path d="M41.2092 164.04L40.9372 163.571L56.7174 154.476L56.9894 154.945L41.2092 164.04Z" fill="#424242"/>
<path d="M143.193 105.266L142.924 104.796L158.702 95.7018L158.975 96.1723L143.193 105.266Z" fill="#424242"/>
<path d="M32.4814 186.742L32.1306 186.327L61.6566 161.597L62.0047 162.012L32.4814 186.742Z" fill="#424242"/>
<path d="M138.257 98.1439L137.91 97.7279L167.433 73.0009L167.783 73.4169L138.257 98.1439Z" fill="#424242"/>
<path d="M56.3557 181.986L55.9368 181.638L67.651 167.705L68.0671 168.053L56.3557 181.986Z" fill="#424242"/>
<path d="M132.05 91.941L131.633 91.5901L143.344 77.6574L143.764 78.0056L132.05 91.941Z" fill="#424242"/>
<path d="M55.9314 206.3L55.4582 206.028L74.7306 172.709L75.2011 172.98L55.9314 206.3Z" fill="#424242"/>
<path d="M124.972 86.9352L124.499 86.6635L143.77 53.3452L144.243 53.6169L124.972 86.9352Z" fill="#424242"/>
<path d="M76.7351 193.681L76.2237 193.497L82.4575 176.404L82.9688 176.588L76.7351 193.681Z" fill="#424242"/>
<path d="M117.012 83.2215L116.501 83.0369L122.732 65.9441L123.243 66.1287L117.012 83.2215Z" fill="#424242"/>
<path d="M84.666 216.671L84.1329 216.578L90.8236 178.69L91.3594 178.785L84.666 216.671Z" fill="#424242"/>
<path d="M108.644 80.9356L108.111 80.8405L114.801 42.9519L115.337 43.0469L108.644 80.9356Z" fill="#424242"/>
<path d="M99.9074 84.6658C74.8316 84.6658 54.431 105.029 54.431 130.06C54.431 155.09 74.8316 175.454 99.9074 175.454C124.983 175.454 145.384 155.09 145.384 130.06C145.384 105.029 124.983 84.6658 99.9074 84.6658ZM99.9074 175.997C74.5308 175.997 53.8873 155.388 53.8873 130.06C53.8873 104.729 74.5308 84.1231 99.9074 84.1231C125.281 84.1231 145.927 104.729 145.927 130.06C145.927 155.388 125.281 175.997 99.9074 175.997Z" fill="#424242"/>
<path d="M99.905 89.9253C77.736 89.9253 59.6991 107.929 59.6991 130.058C59.6991 152.19 77.736 170.194 99.905 170.194C122.077 170.194 140.114 152.19 140.114 130.058C140.114 107.929 122.077 89.9253 99.905 89.9253ZM99.905 170.736C77.4387 170.736 59.1563 152.489 59.1563 130.058C59.1563 107.63 77.4387 89.3835 99.905 89.3835C122.377 89.3835 140.656 107.63 140.656 130.058C140.656 152.489 122.377 170.736 99.905 170.736Z" fill="#424242"/>
<path d="M2.92006 205.61C3.13765 206.08 3.58095 206.992 4.19018 208.208C0.975396 203.775 -0.694554 201.389 0.273691 200.612C1.88108 199.32 5.64799 202.075 7.16835 203.84C4.37513 202.39 1.96542 203.55 2.92006 205.61Z" fill="#424242"/>
<path d="M13.6007 203.745C10.783 202.374 9.76303 204.831 9.90174 205.939C8.31611 204.109 7.9 202.572 8.8764 201.812C9.9072 201.011 12.2462 202.225 13.6007 203.745Z" fill="#424242"/>
<path d="M24.8524 209.666C22.7854 208.542 21.0257 209.365 21.1807 211.121C20.5878 210.486 19.9867 208.396 21.0066 207.91C22.4781 207.209 24.8171 209.598 24.8524 209.666Z" fill="#424242"/>
<path d="M64.8659 311.49L99.6302 328.993C98.5777 324.358 91.4899 292.32 91.4899 269.966C91.4899 259.812 88.2914 253.81 79.2726 247.023C77.6952 245.834 76.0796 244.65 74.5184 243.504C66.903 237.917 59.0293 232.14 51.7538 223.379C45.327 215.639 40.6897 210.73 36.9962 207.771C38.4187 209.973 39.6344 212.465 39.6344 213.975C39.6344 216.217 36.6073 219.225 34.2194 220.023C33.0199 220.425 32.0598 220.252 31.5159 219.535C29.3863 216.719 27.4036 213.562 26.128 210.958L25.9403 210.787C25.5459 210.424 25.1352 210.128 24.7246 209.905L24.6892 209.886C23.6747 209.346 22.6902 209.27 22.0538 209.688C21.6104 209.976 21.3956 210.478 21.45 211.1C21.4554 211.143 21.4608 211.189 21.4663 211.233L21.605 212.264L20.9794 211.431C19.3068 209.205 15.8418 205.241 13.6578 204.082C13.5979 204.049 13.5381 204.019 13.481 203.989C12.4991 203.512 11.6587 203.49 11.0495 203.924C10.345 204.427 10.1084 205.404 10.171 205.906C10.1846 206.015 10.2064 206.08 10.2227 206.115L11.21 208.203L9.76573 206.4C8.94436 205.377 8.02781 204.595 7.04053 204.082C5.3189 203.186 3.90459 203.379 3.31984 203.935C2.92819 204.307 2.8738 204.864 3.16754 205.496C3.39328 205.988 3.85563 206.932 4.43495 208.086C7.76941 214.751 14.3622 227.283 17.9142 231.991C21.0338 236.128 23.9168 242.394 26.4571 247.921C27.8686 250.984 29.1986 253.878 30.3246 255.827C33.3681 261.097 43.1974 265.12 49.7031 267.781C51.5525 268.538 53.1491 269.19 54.2179 269.724C59.2604 272.241 65.6411 276.987 67.3926 285.297C68.815 292.046 67.3953 298.467 66.1442 304.133C65.5513 306.809 64.9937 309.345 64.8659 311.49ZM100.424 330L64.3029 311.816L64.3138 311.639C64.4199 309.41 64.9992 306.79 65.6139 304.016C66.8541 298.404 68.2575 292.043 66.8623 285.411C65.1542 277.31 58.9096 272.673 53.9732 270.208C52.9233 269.684 51.335 269.035 49.4964 268.283C42.9227 265.595 32.99 261.531 29.8514 256.099C28.7145 254.128 27.3791 251.223 25.9648 248.147C23.4327 242.646 20.5633 236.408 17.4791 232.319C13.9053 227.579 7.29074 215.009 3.94812 208.331C3.36609 207.171 2.90099 206.221 2.67253 205.724C2.28088 204.875 2.37879 204.079 2.94451 203.542C3.83932 202.689 5.58815 202.713 7.29346 203.601C8.12843 204.036 8.91172 204.646 9.63519 205.42C9.7195 204.736 10.0785 203.949 10.734 203.482C11.2807 203.094 12.2407 202.781 13.7203 203.501C13.7829 203.533 13.8481 203.566 13.9161 203.601C16.1654 204.798 19.4346 208.591 20.9359 210.489C21.0338 209.959 21.3167 209.52 21.7546 209.235C22.5705 208.7 23.7781 208.773 24.9829 209.427L25.0183 209.446C25.2876 209.596 25.5568 209.772 25.8207 209.976L25.7826 208.939L26.3483 210.16C27.5885 212.832 29.6827 216.214 31.951 219.206C32.4515 219.869 33.3681 219.736 34.048 219.51C36.2483 218.772 39.0905 215.957 39.0905 213.975C39.0905 212.484 37.6871 209.56 35.5956 206.696L34.6028 205.336L35.9763 206.316C39.92 209.14 44.9163 214.295 52.1727 223.032C59.4046 231.741 67.2512 237.499 74.8394 243.064C76.4033 244.213 78.0188 245.399 79.6017 246.588C88.781 253.495 92.0339 259.614 92.0339 269.966C92.0339 293.93 100.207 329.08 100.291 329.432L100.424 330Z" fill="#424242"/>
<path d="M39.3624 213.975C39.3624 216.991 33.4388 221.62 31.7334 219.369C29.7616 216.768 27.5151 213.318 26.1035 210.274C25.1244 208.162 24.5451 206.246 24.7409 204.94C25.2168 201.761 27.6864 200.333 30.9012 201.761C32.3508 202.404 34.2112 204.334 35.8159 206.536C37.7768 209.224 39.3624 212.319 39.3624 213.975Z" fill="#424242"/>
<path d="M51.1228 252.203C51.0494 245.907 45.928 239.823 40.2274 233.625C34.5104 227.408 28.962 218.199 27.4634 214.789C26.0382 211.545 25.8615 210.671 25.856 210.635L26.3918 210.535C26.3918 210.543 26.5767 211.42 27.9611 214.572C29.4488 217.952 34.951 227.085 40.6272 233.256C46.4013 239.535 51.5906 245.709 51.6668 252.195L51.1228 252.203Z" fill="#424242"/>
<path d="M37.8231 245.055C34.3771 237.792 27.9095 229.488 25.9159 227.15C24.6403 225.657 22.0837 222.247 19.3775 218.642C15.6106 213.619 11.3405 207.929 9.78752 206.425L10.1683 206.036C11.7512 207.568 16.0349 213.277 19.8126 218.316C22.5134 221.916 25.0673 225.317 26.3292 226.797C28.3365 229.148 34.8422 237.507 38.3154 244.824L37.8231 245.055Z" fill="#424242"/>
<path d="M38.5003 242.663C36.3598 236.258 33.077 229.618 29.9303 225.334C28.3528 223.186 26.8134 220.675 25.1842 218.014C23.8162 215.783 22.4019 213.475 20.974 211.423L21.42 211.113C22.8561 213.179 24.2758 215.495 25.6466 217.732C27.273 220.382 28.807 222.882 30.3681 225.013C33.5476 229.341 36.8603 236.038 39.0171 242.492L38.5003 242.663Z" fill="#424242"/>
<path d="M199.084 205.61C198.866 206.079 198.419 206.991 197.809 208.208C201.026 203.774 202.695 201.388 201.726 200.611C200.119 199.319 196.352 202.075 194.835 203.839C197.626 202.39 200.035 203.549 199.084 205.61Z" fill="#424242"/>
<path d="M188.401 203.745C191.218 202.374 192.235 204.831 192.101 205.939C193.684 204.109 194.099 202.572 193.121 201.812C192.095 201.011 189.754 202.225 188.401 203.745Z" fill="#424242"/>
<path d="M177.146 209.667C179.215 208.543 180.974 209.366 180.822 211.122C181.409 210.487 182.014 208.396 180.992 207.91C179.519 207.21 177.182 209.599 177.146 209.667Z" fill="#424242"/>
<path d="M165.006 207.772C161.308 210.731 156.673 215.642 150.246 223.379C142.972 232.14 135.096 237.917 127.483 243.504C125.92 244.65 124.304 245.834 122.725 247.023C113.709 253.81 110.511 259.813 110.511 269.966C110.511 292.32 103.423 324.359 102.369 328.993L137.136 311.49C137.009 309.345 136.447 306.81 135.853 304.133C134.602 298.467 133.184 292.043 134.605 285.297C136.357 276.987 142.738 272.241 147.783 269.725C148.852 269.19 150.45 268.538 152.295 267.781C158.802 265.12 168.631 261.097 171.677 255.827C172.799 253.878 174.134 250.984 175.542 247.922C178.085 242.394 180.965 236.128 184.086 231.991C187.636 227.286 194.23 214.752 197.567 208.086C198.142 206.938 198.602 205.993 198.834 205.496C199.127 204.864 199.072 204.307 198.679 203.935C198.095 203.379 196.68 203.186 194.959 204.082C193.973 204.595 193.056 205.377 192.234 206.401L190.788 208.203L191.777 206.115C191.792 206.08 191.814 206.015 191.829 205.907C191.891 205.404 191.653 204.427 190.948 203.925C190.34 203.49 189.499 203.512 188.517 203.99C188.461 204.02 188.399 204.05 188.341 204.079C186.159 205.241 182.692 209.205 181.021 211.431L180.387 212.276L180.536 211.23C180.542 211.187 180.545 211.143 180.548 211.103C180.604 210.478 180.387 209.976 179.949 209.688C179.306 209.27 178.32 209.346 177.304 209.889L177.273 209.906C176.865 210.128 176.454 210.424 176.062 210.788L175.873 210.959C174.594 213.562 172.616 216.72 170.481 219.535C169.938 220.252 168.98 220.426 167.781 220.024C165.395 219.226 162.367 216.217 162.367 213.975C162.367 212.465 163.579 209.973 165.006 207.772ZM101.578 330L101.711 329.432C101.791 329.08 109.967 293.93 109.967 269.966C109.967 259.615 113.22 253.498 122.4 246.589C123.979 245.399 125.595 244.213 127.159 243.067C134.747 237.499 142.596 231.744 149.826 223.032C157.084 214.295 162.08 209.14 166.026 206.316L167.395 205.336L166.403 206.696C164.314 209.561 162.911 212.485 162.911 213.975C162.911 215.957 165.751 218.772 167.954 219.511C168.631 219.736 169.548 219.869 170.052 219.206C172.317 216.215 174.412 212.832 175.651 210.161L176.219 208.939L176.182 209.976C176.442 209.772 176.71 209.596 176.979 209.447L177.016 209.428C178.221 208.773 179.43 208.7 180.245 209.235C180.681 209.52 180.965 209.96 181.064 210.489C182.563 208.594 185.835 204.799 188.084 203.602C188.149 203.566 188.217 203.534 188.282 203.501C189.762 202.782 190.72 203.094 191.264 203.482C191.919 203.949 192.28 204.736 192.364 205.42C193.087 204.647 193.871 204.036 194.709 203.602C196.411 202.714 198.16 202.689 199.053 203.542C199.619 204.079 199.721 204.875 199.325 205.725C199.096 206.227 198.63 207.177 198.052 208.331C194.709 215.012 188.093 227.582 184.518 232.319C181.435 236.408 178.567 242.647 176.037 248.147C174.622 251.223 173.284 254.128 172.147 256.099C169.011 261.531 159.077 265.595 152.502 268.283C150.663 269.035 149.075 269.684 148.024 270.208C143.09 272.673 136.845 277.31 135.14 285.411C133.74 292.041 135.146 298.404 136.388 304.016C137 306.791 137.578 309.41 137.689 311.639L137.695 311.816L137.537 311.895L101.578 330Z" fill="#424242"/>
<path d="M162.639 213.976C162.639 216.992 168.557 221.621 170.264 219.37C172.237 216.769 174.481 213.319 175.896 210.275C176.876 208.163 177.452 206.246 177.257 204.941C176.779 201.762 174.313 200.334 171.097 201.762C169.65 202.405 167.789 204.335 166.183 206.537C164.222 209.225 162.639 212.32 162.639 213.976Z" fill="#424242"/>
<path d="M150.878 252.202L150.333 252.194C150.409 245.708 155.599 239.535 161.374 233.255C167.053 227.084 172.554 217.949 174.039 214.571C175.426 211.42 175.608 210.543 175.611 210.534L176.144 210.635C176.139 210.67 175.965 211.544 174.536 214.789C173.037 218.198 167.491 227.407 161.775 233.624C156.076 239.822 150.951 245.906 150.878 252.202Z" fill="#424242"/>
<path d="M164.174 245.055L163.681 244.824C167.157 237.508 173.662 229.149 175.668 226.798C176.934 225.318 179.485 221.916 182.184 218.317C185.965 213.28 190.25 207.571 191.833 206.037L192.211 206.425C190.658 207.929 186.388 213.62 182.62 218.642C179.914 222.25 177.357 225.657 176.082 227.151C174.088 229.488 167.62 237.793 164.174 245.055Z" fill="#424242"/>
<path d="M163.5 242.662L162.985 242.491C165.14 236.038 168.457 229.34 171.634 225.012C173.196 222.881 174.731 220.381 176.356 217.731C177.725 215.491 179.144 213.178 180.581 211.112L181.03 211.422C179.599 213.474 178.189 215.782 176.82 218.014C175.187 220.674 173.649 223.185 172.072 225.333C168.924 229.617 165.642 236.257 163.5 242.662Z" fill="#424242"/>
<path d="M67.0227 265.734C67.689 265.734 68.2738 265.88 68.7688 266.171C69.7207 266.733 70.3544 267.832 70.6618 269.45C71.0045 267.838 71.6599 266.752 72.62 266.209C73.5828 265.668 74.853 265.671 76.4114 266.211C75.1821 265.112 74.5674 264.002 74.5783 262.899C74.5891 261.797 75.2256 260.7 76.4767 259.625C74.9074 260.136 73.6372 260.114 72.688 259.552C71.7361 258.99 71.1024 257.893 70.7951 256.275C70.4524 257.888 69.7996 258.971 68.8368 259.514C67.874 260.057 66.6039 260.054 65.0454 259.511C66.2748 260.613 66.8894 261.721 66.8786 262.823C66.8677 263.926 66.2313 265.022 64.9802 266.1C65.7308 265.856 66.4108 265.734 67.0227 265.734ZM70.8821 272.312L70.3871 272.306C70.417 269.268 69.7887 267.346 68.5186 266.597C67.2485 265.848 65.2603 266.225 62.6058 267.721L62.3637 267.289C65.0155 265.796 66.3672 264.292 66.3836 262.818C66.3972 261.346 65.0753 259.815 62.4535 258.27L62.7037 257.844C65.3283 259.389 67.3083 259.807 68.592 259.082C69.8785 258.36 70.5448 256.452 70.5748 253.411L71.0697 253.416C71.0398 256.457 71.6681 258.376 72.9382 259.126C74.2084 259.875 76.1993 259.498 78.8511 258.004L79.0931 258.433C76.4413 259.929 75.0896 261.433 75.0733 262.905C75.0597 264.376 76.3815 265.907 79.0034 267.455L78.7531 267.878C76.1313 266.334 74.1485 265.916 72.8648 266.64C71.5783 267.363 70.912 269.271 70.8821 272.312Z" fill="#424242"/>
<path d="M124.927 265.734C125.593 265.734 126.178 265.88 126.676 266.171C127.625 266.733 128.259 267.832 128.569 269.45C128.909 267.838 129.564 266.752 130.524 266.209C131.487 265.668 132.757 265.671 134.316 266.211C133.089 265.112 132.474 264.002 132.485 262.899C132.496 261.797 133.133 260.7 134.381 259.625C132.812 260.136 131.544 260.114 130.592 259.552C129.64 258.99 129.007 257.893 128.699 256.275C128.357 257.888 127.704 258.971 126.741 259.514C125.778 260.057 124.508 260.054 122.95 259.511C124.179 260.613 124.794 261.721 124.783 262.823C124.772 263.926 124.136 265.022 122.884 266.1C123.635 265.856 124.315 265.734 124.927 265.734ZM128.786 272.312L128.291 272.306C128.321 269.268 127.693 267.346 126.423 266.597C125.153 265.848 123.165 266.225 120.51 267.721L120.268 267.289C122.92 265.796 124.274 264.292 124.288 262.818C124.301 261.346 122.98 259.815 120.358 258.27L120.611 257.844C123.233 259.389 125.213 259.807 126.499 259.082C127.783 258.36 128.449 256.452 128.479 253.411L128.974 253.416C128.944 256.457 129.572 258.376 130.842 259.126C132.115 259.875 134.104 259.498 136.755 258.004L136.997 258.433C134.346 259.929 132.994 261.433 132.98 262.905C132.964 264.376 134.286 265.907 136.908 267.455L136.657 267.878C134.036 266.334 132.056 265.916 130.769 266.64C129.485 267.365 128.816 269.271 128.786 272.312Z" fill="#424242"/>
<path d="M76.4713 169.388C76.4713 169.646 76.2618 169.855 76.0034 169.855C75.7451 169.855 75.5356 169.646 75.5356 169.388C75.5356 169.131 75.7451 168.922 76.0034 168.922C76.2618 168.922 76.4713 169.131 76.4713 169.388Z" fill="#424242"/>
</svg>
