<svg width="151" height="330" viewBox="0 0 151 330" fill="none" xmlns="http://www.w3.org/2000/svg">
<mask id="path-1-inside-1_930_46" fill="white">
<path d="M143.559 93.2992C143.501 99.0629 140.991 100.478 136.033 97.547C140.991 100.478 140.964 103.36 135.946 106.192C140.964 103.36 143.447 104.827 143.387 110.587C143.447 104.827 145.952 103.409 150.916 106.34C145.952 103.409 145.982 100.527 151 97.6969C145.982 100.527 143.501 99.0629 143.559 93.2992Z"/>
<path d="M33.8429 320.9C33.8114 323.934 32.4912 324.679 29.8801 323.136C32.4912 324.679 32.4767 326.196 29.834 327.687C32.4767 326.196 33.7823 326.968 33.7507 330C33.7823 326.968 35.1024 326.221 37.7135 327.764C35.1024 326.221 35.117 324.706 37.7596 323.213C35.117 324.706 33.8114 323.934 33.8429 320.9Z"/>
<path d="M6.32642 185.953C6.27788 190.742 4.19336 191.919 0.0728003 189.482C4.19336 191.919 4.16909 194.313 0 196.665C4.16909 194.313 6.22937 195.529 6.18326 200.318C6.22937 195.529 8.31392 194.354 12.4369 196.788C8.31392 194.354 8.33817 191.958 12.5073 189.606C8.33817 191.958 6.27788 190.742 6.32642 185.953Z"/>
<path d="M126.527 252.303C126.464 258.682 123.685 260.247 118.194 257.004C123.685 260.247 123.654 263.437 118.1 266.573C123.654 263.437 126.398 265.06 126.335 271.439C126.398 265.06 129.177 263.493 134.668 266.738C129.177 263.493 129.208 260.303 134.763 257.169C129.208 260.303 126.464 258.682 126.527 252.303Z"/>
<path d="M18.3007 0C18.2535 4.75979 16.1832 5.92925 12.0848 3.50839C16.1832 5.92925 16.1584 8.30791 12.0153 10.6468C16.1584 8.30791 18.2063 9.51711 18.1592 14.2769C18.2063 9.51711 20.2791 8.35013 24.3775 10.7685C20.2791 8.35013 20.3014 5.96899 24.447 3.63006C20.3014 5.96899 18.2535 4.75979 18.3007 0Z"/>
<path d="M105.768 55.5533C105.768 68.2702 99.1899 79.4517 89.2474 85.8726C83.6139 89.514 76.9031 91.6298 69.7002 91.6298C62.4949 91.6298 55.7817 89.514 50.1507 85.8726C40.2082 79.4517 33.6297 68.2702 33.6297 55.5533C33.6297 35.6293 49.7785 19.4742 69.7002 19.4742C89.6195 19.4742 105.768 35.6293 105.768 55.5533Z"/>
<path d="M105.768 147.993C105.768 158.694 101.107 168.311 93.7057 174.919H93.7032C87.323 180.608 78.9156 184.067 69.7002 184.067C60.4825 184.067 52.0751 180.608 45.6973 174.919H45.6948C38.2912 168.311 33.6297 158.694 33.6297 147.993C33.6297 140.512 35.909 133.564 39.8067 127.802C46.2897 137.384 57.2581 143.685 69.7002 143.685C82.14 143.685 93.1083 137.384 99.5889 127.802C103.491 133.564 105.768 140.512 105.768 147.993Z"/>
<path d="M105.768 272.716C105.768 292.642 89.6195 308.793 69.7002 308.793C49.7785 308.793 33.6297 292.642 33.6297 272.716C33.6297 270.439 33.8402 268.209 34.2466 266.048C37.3731 282.787 52.0555 295.455 69.7002 295.455C87.3426 295.455 102.027 282.787 105.151 266.048C105.558 268.209 105.768 270.439 105.768 272.716Z"/>
<path d="M105.768 215.641C105.768 235.566 89.6195 251.715 69.7002 251.715C49.7785 251.715 33.6297 235.566 33.6297 215.641C33.6297 211.158 34.4474 206.866 35.9409 202.907C41.0872 216.549 54.2589 226.253 69.7002 226.253C85.1391 226.253 98.3109 216.549 103.457 202.907C104.951 206.866 105.768 211.158 105.768 215.641Z"/>
</mask>
<path d="M89.2474 85.8726L88.7049 85.0325L88.7045 85.0327L89.2474 85.8726ZM50.1507 85.8726L50.6937 85.0329L50.6932 85.0325L50.1507 85.8726ZM93.7057 174.919V175.919H94.0871L94.3716 175.665L93.7057 174.919ZM93.7032 174.919V173.919H93.3221L93.0377 174.172L93.7032 174.919ZM45.6973 174.919L46.363 174.172L46.0785 173.919H45.6973V174.919ZM45.6948 174.919L45.029 175.665L45.3135 175.919H45.6948V174.919ZM39.8067 127.802L40.6349 127.242L39.8066 126.017L38.9784 127.242L39.8067 127.802ZM99.5889 127.802L100.417 127.241L99.5883 126.018L98.7606 127.242L99.5889 127.802ZM34.2466 266.048L35.2296 265.865L33.2639 265.863L34.2466 266.048ZM105.151 266.048L106.134 265.863L104.168 265.865L105.151 266.048ZM35.9409 202.907L36.8765 202.555L35.9408 200.074L35.0052 202.555L35.9409 202.907ZM103.457 202.907L104.393 202.555L103.457 200.074L102.522 202.555L103.457 202.907ZM142.559 93.2893C142.545 94.6699 142.384 95.7167 142.114 96.47C141.848 97.2151 141.5 97.6106 141.142 97.8126C140.784 98.0147 140.266 98.1075 139.491 97.9502C138.708 97.7913 137.729 97.3881 136.542 96.6861L135.524 98.4078C136.815 99.1713 138.01 99.6904 139.093 99.9103C140.186 100.132 141.229 100.06 142.125 99.5545C143.021 99.0487 143.622 98.193 143.997 97.1433C144.37 96.1019 144.544 94.8104 144.559 93.3092L142.559 93.2893ZM135.524 98.4078C136.711 99.1098 137.537 99.7729 138.054 100.383C138.566 100.986 138.734 101.485 138.73 101.897C138.726 102.308 138.548 102.804 138.024 103.397C137.494 103.996 136.656 104.643 135.454 105.322L136.437 107.063C137.744 106.325 138.791 105.55 139.523 104.721C140.261 103.885 140.72 102.946 140.73 101.916C140.74 100.887 140.3 99.939 139.579 99.0891C138.864 98.2458 137.833 97.4496 136.542 96.6861L135.524 98.4078ZM136.437 107.063C137.639 106.385 138.626 106.001 139.413 105.858C140.191 105.716 140.708 105.819 141.062 106.028C141.416 106.238 141.756 106.64 142.007 107.39C142.261 108.148 142.401 109.197 142.387 110.577L144.387 110.598C144.402 109.097 144.255 107.803 143.903 106.754C143.549 105.697 142.965 104.83 142.079 104.306C141.193 103.783 140.151 103.69 139.054 103.89C137.966 104.088 136.761 104.584 135.454 105.322L136.437 107.063ZM144.387 110.598C144.401 109.218 144.563 108.171 144.832 107.418C145.099 106.673 145.446 106.277 145.804 106.075C146.162 105.873 146.68 105.78 147.455 105.937C148.239 106.096 149.218 106.499 150.407 107.201L151.424 105.479C150.131 104.715 148.936 104.196 147.852 103.977C146.76 103.755 145.717 103.827 144.821 104.333C143.925 104.839 143.324 105.695 142.949 106.744C142.577 107.786 142.403 109.077 142.387 110.577L144.387 110.598ZM151.424 105.479C150.235 104.777 149.409 104.113 148.891 103.504C148.379 102.9 148.21 102.402 148.215 101.99C148.219 101.579 148.397 101.084 148.921 100.491C149.451 99.8921 150.289 99.2458 151.491 98.568L150.509 96.8259C149.202 97.5631 148.155 98.3383 147.422 99.1669C146.684 100.002 146.225 100.941 146.215 101.971C146.204 103 146.645 103.948 147.367 104.798C148.083 105.641 149.114 106.437 150.407 107.201L151.424 105.479ZM150.509 96.8259C149.307 97.5038 148.32 97.8872 147.533 98.0304C146.755 98.1721 146.239 98.0689 145.885 97.8597C145.531 97.6506 145.191 97.2483 144.94 96.498C144.685 95.7396 144.545 94.6898 144.559 93.3092L142.559 93.2893C142.544 94.7905 142.692 96.0851 143.043 97.1337C143.398 98.1906 143.981 99.0582 144.867 99.5817C145.754 100.105 146.795 100.198 147.891 99.9981C148.979 99.8 150.184 99.3051 151.491 98.568L150.509 96.8259ZM32.843 320.89C32.8357 321.588 32.7535 322.081 32.636 322.41C32.5215 322.73 32.3985 322.829 32.3375 322.864C32.2765 322.898 32.1284 322.952 31.7955 322.884C31.4541 322.815 30.9899 322.63 30.389 322.275L29.3712 323.996C30.0759 324.413 30.7559 324.714 31.3974 324.844C32.0474 324.976 32.7208 324.944 33.3202 324.606C33.9196 324.267 34.2958 323.708 34.5192 323.083C34.7397 322.467 34.8344 321.729 34.8429 320.911L32.843 320.89ZM29.3712 323.996C29.972 324.352 30.3579 324.669 30.5835 324.935C30.8035 325.195 30.828 325.351 30.8273 325.421C30.8266 325.492 30.799 325.647 30.5739 325.902C30.3431 326.163 29.9508 326.473 29.3428 326.816L30.3252 328.558C31.0385 328.156 31.639 327.717 32.0726 327.226C32.5119 326.729 32.8203 326.129 32.8272 325.441C32.8341 324.753 32.5378 324.147 32.1087 323.642C31.6852 323.142 31.0938 322.691 30.389 322.275L29.3712 323.996ZM30.3252 328.558C30.9333 328.215 31.4014 328.039 31.7444 327.977C32.0789 327.916 32.2262 327.973 32.2866 328.009C32.3468 328.044 32.4676 328.146 32.5754 328.468C32.6861 328.798 32.758 329.292 32.7508 329.99L34.7507 330.01C34.7592 329.192 34.6798 328.453 34.4719 327.832C34.2612 327.204 33.8963 326.637 33.3038 326.287C32.7114 325.937 32.0387 325.891 31.3862 326.009C30.7421 326.127 30.056 326.414 29.3428 326.816L30.3252 328.558ZM34.7507 330.01C34.7579 329.313 34.8401 328.82 34.9576 328.492C35.0721 328.171 35.1952 328.072 35.2565 328.037C35.3176 328.003 35.4658 327.949 35.7985 328.016C36.1398 328.085 36.6038 328.27 37.2046 328.625L38.2225 326.904C37.5176 326.487 36.8375 326.186 36.1959 326.056C35.5457 325.924 34.8723 325.957 34.2731 326.296C33.674 326.634 33.2979 327.193 33.0745 327.818C32.854 328.434 32.7593 329.171 32.7508 329.99L34.7507 330.01ZM38.2225 326.904C37.6215 326.548 37.2355 326.231 37.01 325.965C36.79 325.706 36.7656 325.55 36.7663 325.48C36.767 325.41 36.7946 325.254 37.0198 324.999C37.2508 324.738 37.6432 324.428 38.2515 324.084L37.2678 322.343C36.5547 322.745 35.9543 323.184 35.5209 323.675C35.0818 324.172 34.7733 324.772 34.7664 325.46C34.7596 326.148 35.056 326.753 35.4851 327.259C35.9086 327.758 36.5 328.209 37.2046 328.625L38.2225 326.904ZM37.2678 322.343C36.6597 322.686 36.1916 322.862 35.8486 322.925C35.5142 322.986 35.3672 322.929 35.3071 322.893C35.247 322.858 35.1262 322.756 35.0182 322.434C34.9076 322.103 34.8356 321.609 34.8429 320.911L32.843 320.89C32.8345 321.709 32.9139 322.448 33.1217 323.069C33.3323 323.698 33.6971 324.265 34.2898 324.615C34.8825 324.965 35.5554 325.011 36.208 324.892C36.8521 324.774 37.5383 324.487 38.2515 324.084L37.2678 322.343ZM5.32647 185.943C5.31495 187.08 5.18179 187.929 4.96664 188.531C4.75439 189.125 4.48709 189.414 4.23507 189.557C3.98316 189.699 3.59745 189.778 2.98047 189.652C2.35494 189.525 1.56002 189.2 0.581857 188.622L-0.436257 190.343C0.645861 190.983 1.65671 191.424 2.58245 191.612C3.51675 191.802 4.42781 191.744 5.21817 191.298C6.00841 190.852 6.52888 190.102 6.84989 189.204C7.16801 188.314 7.31362 187.221 7.32637 185.963L5.32647 185.943ZM-0.436257 190.343C0.541948 190.922 1.21028 191.462 1.62337 191.949C2.03085 192.429 2.14801 192.806 2.14507 193.095C2.14213 193.385 2.01739 193.759 1.6003 194.231C1.17746 194.709 0.498353 195.235 -0.491359 195.794L0.491359 197.536C1.58619 196.918 2.47353 196.263 3.09903 195.555C3.73028 194.841 4.13577 194.023 4.14497 193.115C4.15416 192.208 3.76535 191.382 3.14876 190.655C2.53777 189.935 1.66393 189.262 0.581857 188.622L-0.436257 190.343ZM0.491359 197.536C1.48111 196.977 2.28258 196.668 2.91075 196.553C3.53038 196.441 3.91463 196.527 4.16376 196.674C4.41291 196.821 4.67435 197.116 4.87477 197.714C5.07793 198.319 5.19425 199.171 5.1833 200.308L7.18321 200.327C7.19532 199.07 7.07139 197.973 6.77094 197.078C6.46774 196.174 5.96219 195.414 5.1809 194.952C4.39958 194.491 3.48994 194.415 2.55216 194.586C1.62291 194.755 0.603432 195.176 -0.491359 195.794L0.491359 197.536ZM7.18321 200.327C7.19416 199.19 7.32692 198.341 7.54176 197.74C7.75368 197.147 8.02074 196.857 8.27261 196.715C8.52453 196.573 8.91051 196.494 9.52808 196.619C10.1541 196.746 10.9496 197.071 11.9284 197.649L12.9454 195.927C11.8627 195.288 10.8515 194.847 9.92566 194.659C8.99135 194.47 8.08025 194.527 7.28989 194.973C6.49948 195.419 5.97907 196.169 5.65833 197.067C5.34051 197.957 5.19541 199.05 5.1833 200.308L7.18321 200.327ZM12.9454 195.927C11.9666 195.349 11.298 194.81 10.8847 194.323C10.477 193.842 10.3596 193.466 10.3625 193.176C10.3654 192.886 10.4901 192.512 10.9071 192.04C11.3299 191.562 12.009 191.035 12.9986 190.477L12.0159 188.735C10.921 189.353 10.0336 190.008 9.40814 190.716C8.77692 191.431 8.37156 192.249 8.3626 193.156C8.35364 194.064 8.74275 194.89 9.35981 195.617C9.97125 196.337 10.8457 197.01 11.9284 197.649L12.9454 195.927ZM12.0159 188.735C11.0261 189.294 10.2247 189.603 9.59654 189.717C8.97692 189.83 8.59282 189.744 8.34391 189.597C8.095 189.449 7.83376 189.155 7.63364 188.557C7.43077 187.952 7.31484 187.1 7.32637 185.963L5.32647 185.943C5.31372 187.2 5.43714 188.297 5.73721 189.193C6.04002 190.097 6.54532 190.857 7.32655 191.318C8.10778 191.78 9.01742 191.856 9.95515 191.685C10.8844 191.515 11.9038 191.095 12.9986 190.477L12.0159 188.735ZM125.527 252.293C125.512 253.827 125.332 254.999 125.029 255.848C124.728 256.689 124.33 257.151 123.905 257.391C123.479 257.631 122.878 257.732 122.003 257.555C121.119 257.376 120.023 256.923 118.703 256.143L117.686 257.865C119.11 258.707 120.421 259.275 121.605 259.515C122.797 259.757 123.924 259.676 124.887 259.133C125.851 258.589 126.502 257.667 126.912 256.521C127.319 255.384 127.51 253.968 127.527 252.313L125.527 252.293ZM117.686 257.865C119.006 258.645 119.931 259.386 120.515 260.074C121.092 260.754 121.294 261.33 121.289 261.819C121.284 262.307 121.071 262.879 120.48 263.549C119.883 264.225 118.944 264.948 117.608 265.702L118.591 267.444C120.032 266.63 121.18 265.778 121.979 264.873C122.785 263.961 123.278 262.945 123.289 261.838C123.3 260.732 122.827 259.707 122.039 258.779C121.258 257.859 120.127 256.985 118.703 256.143L117.686 257.865ZM118.591 267.444C119.927 266.689 121.031 266.258 121.918 266.097C122.796 265.937 123.395 266.05 123.815 266.299C124.235 266.547 124.624 267.017 124.908 267.865C125.194 268.72 125.35 269.895 125.335 271.429L127.335 271.449C127.351 269.794 127.188 268.374 126.804 267.229C126.418 266.076 125.785 265.14 124.833 264.577C123.88 264.014 122.756 263.911 121.559 264.129C120.371 264.346 119.049 264.888 117.608 265.702L118.591 267.444ZM127.335 271.449C127.35 269.915 127.53 268.743 127.833 267.894C128.134 267.053 128.532 266.59 128.957 266.35C129.383 266.11 129.984 266.009 130.859 266.186C131.743 266.366 132.838 266.818 134.159 267.599L135.177 265.877C133.752 265.035 132.441 264.466 131.257 264.226C130.065 263.984 128.938 264.065 127.975 264.609C127.011 265.152 126.359 266.075 125.95 267.221C125.543 268.358 125.352 269.774 125.335 271.429L127.335 271.449ZM135.177 265.877C133.856 265.096 132.931 264.355 132.348 263.667C131.77 262.986 131.568 262.41 131.573 261.922C131.578 261.433 131.791 260.861 132.382 260.192C132.979 259.517 133.918 258.794 135.254 258.04L134.271 256.298C132.83 257.112 131.682 257.963 130.883 258.868C130.078 259.78 129.584 260.796 129.573 261.902C129.562 263.008 130.035 264.034 130.823 264.961C131.604 265.882 132.734 266.757 134.159 267.599L135.177 265.877ZM134.271 256.298C132.935 257.052 131.831 257.483 130.944 257.644C130.066 257.804 129.467 257.691 129.047 257.442C128.627 257.194 128.238 256.724 127.954 255.877C127.668 255.022 127.512 253.847 127.527 252.313L125.527 252.293C125.511 253.948 125.674 255.368 126.058 256.513C126.444 257.666 127.077 258.601 128.029 259.164C128.982 259.727 130.106 259.83 131.303 259.612C132.491 259.395 133.813 258.853 135.254 258.04L134.271 256.298ZM17.3007 -0.00990851C17.2895 1.11979 17.1575 1.96312 16.9442 2.56025C16.7338 3.14926 16.469 3.43573 16.2203 3.57612C15.9717 3.71649 15.5899 3.79508 14.9772 3.67081C14.3561 3.54481 13.5661 3.22193 12.5934 2.64738L11.5762 4.3694C12.6528 5.00528 13.6585 5.44404 14.5796 5.63089C15.5093 5.81947 16.4164 5.76212 17.2036 5.31776C17.9906 4.87342 18.5085 4.12637 18.8276 3.23306C19.1438 2.34788 19.2882 1.26011 19.3006 0.00990851L17.3007 -0.00990851ZM11.5762 4.3694C12.5489 4.94393 13.213 5.47998 13.6232 5.96328C14.0278 6.43997 14.1435 6.81258 14.1407 7.09843C14.1378 7.38431 14.0148 7.75456 13.6009 8.22314C13.1813 8.69821 12.507 9.22094 11.5237 9.77602L12.5069 11.5177C13.5952 10.9033 14.4777 10.2516 15.0999 9.54717C15.7278 8.83628 16.1316 8.02201 16.1406 7.11825C16.1495 6.21446 15.7619 5.39231 15.148 4.66904C14.5397 3.95239 13.67 3.28328 12.5934 2.64738L11.5762 4.3694ZM12.5069 11.5177C13.4902 10.9626 14.286 10.6554 14.9093 10.5417C15.524 10.4296 15.9041 10.5156 16.15 10.6608C16.3958 10.8061 16.6548 11.0976 16.8535 11.6906C17.055 12.2917 17.1704 13.1373 17.1592 14.267L19.1591 14.2868C19.1715 13.0366 19.0486 11.9462 18.7499 11.055C18.4484 10.1555 17.9453 9.39853 17.1672 8.93886C16.389 8.47916 15.4833 8.40398 14.5503 8.57419C13.6259 8.74284 12.612 9.16163 11.5237 9.77602L12.5069 11.5177ZM19.1591 14.2868C19.1703 13.1572 19.3025 12.3141 19.5159 11.7173C19.7264 11.1287 19.9913 10.8424 20.2403 10.7019C20.4894 10.5615 20.8718 10.4829 21.4849 10.6072C22.1064 10.7331 22.8966 11.0558 23.8693 11.6297L24.8857 9.90727C23.8092 9.27204 22.8033 8.83369 21.8821 8.64701C20.9524 8.45863 20.0452 8.51589 19.2579 8.95984C18.4706 9.40383 17.9522 10.1505 17.6327 11.0438C17.3162 11.929 17.1716 13.0167 17.1592 14.267L19.1591 14.2868ZM24.8857 9.90727C23.9131 9.33338 23.2489 8.79763 22.8386 8.31444C22.4338 7.83786 22.318 7.46515 22.3207 7.17914C22.3235 6.89314 22.4465 6.52274 22.8604 6.05407C23.2801 5.57889 23.9546 5.05604 24.9384 4.501L23.9556 2.75912C22.8666 3.37354 21.9837 4.02543 21.3614 4.73012C20.7332 5.44131 20.3295 6.2559 20.3208 7.15984C20.3121 8.06378 20.7 8.88598 21.3142 9.60913C21.9227 10.3257 22.7926 10.9945 23.8693 11.6297L24.8857 9.90727ZM23.9556 2.75912C22.9717 3.31423 22.1754 3.62143 21.5517 3.73517C20.9365 3.84735 20.5561 3.76127 20.3101 3.616C20.0641 3.47073 19.805 3.17917 19.6063 2.5863C19.4048 1.98522 19.2894 1.13956 19.3006 0.00990851L17.3007 -0.00990851C17.2883 1.24033 17.4112 2.33075 17.71 3.22199C18.0115 4.12145 18.5147 4.87846 19.293 5.33811C20.0713 5.79774 20.9772 5.8729 21.9105 5.70272C22.8352 5.5341 23.8495 5.11536 24.9384 4.501L23.9556 2.75912ZM104.768 55.5533C104.768 67.9168 98.374 78.7882 88.7049 85.0325L89.7899 86.7126C100.006 80.1152 106.768 68.6236 106.768 55.5533H104.768ZM88.7045 85.0327C83.2276 88.573 76.7044 90.6298 69.7002 90.6298V92.6298C77.1018 92.6298 84.0001 90.4551 89.7902 86.7124L88.7045 85.0327ZM69.7002 90.6298C62.6935 90.6298 56.168 88.5729 50.6937 85.0329L49.6077 86.7123C55.3955 90.4551 62.2964 92.6298 69.7002 92.6298V90.6298ZM50.6932 85.0325C41.0241 78.7882 34.6297 67.9168 34.6297 55.5533H32.6297C32.6297 68.6236 39.3923 80.1152 49.6082 86.7126L50.6932 85.0325ZM34.6297 55.5533C34.6297 36.1814 50.3311 20.4742 69.7002 20.4742V18.4742C49.226 18.4742 32.6297 35.0773 32.6297 55.5533H34.6297ZM69.7002 20.4742C89.0669 20.4742 104.768 36.1813 104.768 55.5533H106.768C106.768 35.0774 90.1721 18.4742 69.7002 18.4742V20.4742ZM104.768 147.993C104.768 158.398 100.237 167.747 93.0397 174.173L94.3716 175.665C101.976 168.876 106.768 158.991 106.768 147.993H104.768ZM93.7057 173.919H93.7032V175.919H93.7057V173.919ZM93.0377 174.172C86.8333 179.705 78.6604 183.067 69.7002 183.067V185.067C79.1708 185.067 87.8127 181.511 94.3688 175.665L93.0377 174.172ZM69.7002 183.067C60.7375 183.067 52.5648 179.705 46.363 174.172L45.0316 175.665C51.5853 181.511 60.2274 185.067 69.7002 185.067V183.067ZM45.6973 173.919H45.6948V175.919H45.6973V173.919ZM46.3606 174.172C39.1606 167.747 34.6297 158.398 34.6297 147.993H32.6297C32.6297 158.991 37.4217 168.876 45.029 175.665L46.3606 174.172ZM34.6297 147.993C34.6297 140.718 36.8455 133.964 40.635 128.362L38.9784 127.242C34.9725 133.164 32.6297 140.305 32.6297 147.993H34.6297ZM38.9784 128.362C45.6395 138.208 56.9121 144.685 69.7002 144.685V142.685C57.6041 142.685 46.94 136.561 40.6349 127.242L38.9784 128.362ZM69.7002 144.685C82.486 144.685 93.7586 138.208 100.417 128.362L98.7606 127.242C92.458 136.561 81.794 142.685 69.7002 142.685V144.685ZM98.7609 128.363C102.555 133.965 104.768 140.718 104.768 147.993H106.768C106.768 140.306 104.428 133.164 100.417 127.241L98.7609 128.363ZM104.768 272.716C104.768 292.089 89.067 307.793 69.7002 307.793V309.793C90.172 309.793 106.768 293.194 106.768 272.716H104.768ZM69.7002 307.793C50.331 307.793 34.6297 292.089 34.6297 272.716H32.6297C32.6297 293.194 49.2261 309.793 69.7002 309.793V307.793ZM34.6297 272.716C34.6297 270.501 34.8345 268.332 35.2294 266.233L33.2639 265.863C32.8459 268.085 32.6297 270.378 32.6297 272.716H34.6297ZM33.2636 266.232C36.4769 283.435 51.5651 296.455 69.7002 296.455V294.455C52.5458 294.455 38.2693 282.139 35.2296 265.865L33.2636 266.232ZM69.7002 296.455C87.8329 296.455 102.924 283.435 106.134 266.232L104.168 265.865C101.131 282.139 86.8523 294.455 69.7002 294.455V296.455ZM104.169 266.233C104.564 268.332 104.768 270.501 104.768 272.716H106.768C106.768 270.378 106.552 268.085 106.134 265.863L104.169 266.233ZM104.768 215.641C104.768 235.014 89.0671 250.715 69.7002 250.715V252.715C90.1719 252.715 106.768 236.119 106.768 215.641H104.768ZM69.7002 250.715C50.3309 250.715 34.6297 235.014 34.6297 215.641H32.6297C32.6297 236.119 49.2262 252.715 69.7002 252.715V250.715ZM34.6297 215.641C34.6297 211.28 35.4249 207.108 36.8765 203.26L35.0052 202.555C33.4699 206.624 32.6297 211.035 32.6297 215.641H34.6297ZM35.0052 203.26C40.2935 217.278 53.829 227.253 69.7002 227.253V225.253C54.6888 225.253 41.8808 215.82 36.8765 202.555L35.0052 203.26ZM69.7002 227.253C85.569 227.253 99.1046 217.278 104.393 203.26L102.522 202.555C97.5172 215.82 84.7092 225.253 69.7002 225.253V227.253ZM102.522 203.26C103.973 207.108 104.768 211.28 104.768 215.641H106.768C106.768 211.035 105.928 206.624 104.393 202.555L102.522 203.26Z" fill="#424242" mask="url(#path-1-inside-1_930_46)"/>
</svg>
