<svg width="230" height="271" viewBox="0 0 230 271" fill="none" xmlns="http://www.w3.org/2000/svg">
<path d="M140.64 271L140.094 270.881C140.294 269.988 141.061 260.889 142.032 249.373C143.928 226.888 146.793 192.907 148.201 187.537C150.26 179.699 154.444 174.068 160.976 166.995C169.629 157.619 170.955 150.843 171.667 147.2C171.713 146.965 171.757 146.74 171.8 146.532C166.543 153.228 162.88 156.689 159.68 158.009C157.531 160.421 155.249 162.092 153.566 162.486C151.631 162.935 150.071 162.793 148.93 162.059C147.648 161.238 147.391 159.974 147.381 159.921L147.374 159.885L147.377 159.849C147.381 159.799 147.386 159.746 147.392 159.693C146.13 161.251 144.806 162.436 143.448 163.227C141.378 164.431 139.627 164.646 138.244 163.865C136.504 162.883 135.882 160.55 135.879 158.849C135.873 154.773 136.733 150.304 138.178 146.893C139.254 144.358 140.569 142.559 142.089 141.543C143.684 140.478 148.229 141.143 150.929 142.84C152.705 143.955 153.516 145.348 153.275 146.863C153.188 147.412 153.06 148.008 152.897 148.636C153.958 147.21 155.309 145.662 156.353 145.341C161.979 136.114 168.207 122.675 171.518 112.617C171.55 112.544 173.825 107.151 173.028 103.823C172.216 100.432 169.338 97.2391 166.029 96.0547C163.946 95.3103 160.711 94.9795 157.123 97.6362C155.507 99.2441 154.115 100.395 152.753 101.249C152.001 102.936 151.219 104.293 150.49 105.173C148.871 107.131 145.965 109.279 143.105 108.892C141.251 108.637 139.806 107.366 138.809 105.107C138.196 103.72 137.943 101.874 138.057 99.6213C136.323 97.0704 136.063 94.0299 136.373 92.1904C136.831 89.4775 137.167 86.48 137.593 82.6819C137.678 81.921 137.766 81.1335 137.86 80.313C136.366 82.8572 134.138 84.9515 132.391 85.3452C131.731 85.4908 131.161 85.3849 130.741 85.0309L130.686 84.9846L130.66 84.9151C129.217 81.0343 129.855 58.1396 130.321 41.4219C130.436 37.2797 130.545 33.3691 130.607 30.3022C130.788 21.2039 130.283 15.1759 129.018 11.3314C127.842 7.76158 125.976 6.02794 123.311 6.02794C121.441 6.02794 120.025 7.33479 118.982 10.0213C117.57 13.6573 117.009 19.2982 116.416 25.27C116.202 27.4337 115.98 29.6703 115.712 31.8406C114.781 39.3839 113.657 50.2357 112.57 60.7302C111.894 67.2578 111.195 74.0104 110.563 79.7572C108.768 96.0514 100.561 110.734 93.6641 115.515C91.5105 117.011 89.5383 117.553 87.799 117.133C84.6155 116.365 81.3936 112.356 77.3143 107.274C70.5204 98.8173 61.2154 87.231 46.9402 85.9937C45.6718 85.8845 44.1781 85.9374 42.6199 86.1525C39.2172 86.6157 34.6399 88.0284 32.937 90.4833C32.355 91.3203 32.172 92.2169 32.3919 93.14C33.0897 96.068 38.0321 99.919 41.6888 102.562L41.8036 102.649C43.2189 103.668 44.6363 104.647 46.0078 105.593C47.9974 106.966 49.8766 108.266 51.1634 109.299C60.9744 117.427 66.1642 128.537 69.9474 138.334C75.6245 153.023 83.5011 161.48 89.8304 168.272C93.3244 172.024 96.3422 175.263 98.1361 178.7C105.758 193.294 98.3379 221.853 94.7936 233.455L94.2579 233.297C96.4838 226.011 99.3633 214.994 100.443 203.884C101.506 192.94 100.563 184.55 97.6391 178.952C95.8797 175.584 92.8857 172.368 89.4188 168.646C83.0573 161.82 75.1399 153.321 69.425 138.529C65.6672 128.802 60.5166 117.768 50.8073 109.725C49.5396 108.706 47.6684 107.416 45.6875 106.046C44.2765 105.074 42.8173 104.065 41.3588 103.012L41.244 102.926C37.2259 100.015 32.5726 96.3095 31.8473 93.269C31.5896 92.1838 31.8012 91.1416 32.4759 90.169C34.2798 87.5718 38.8591 86.1062 42.5429 85.6033C44.1423 85.3849 45.6798 85.3287 46.989 85.4445C61.5042 86.6984 70.8952 98.3938 77.7524 106.93C81.6061 111.73 84.9345 115.876 87.9315 116.597C89.5055 116.978 91.3268 116.461 93.3428 115.062C100.138 110.354 108.229 95.8364 110.007 79.6977C110.639 73.9508 111.338 67.2016 112.014 60.674C113.101 50.1762 114.225 39.3211 115.157 31.7745C115.424 29.6074 115.645 27.3775 115.859 25.2171C116.456 19.2056 117.02 13.5283 118.46 9.82277C119.596 6.89808 121.182 5.47543 123.311 5.47543C126.249 5.47543 128.289 7.33478 129.55 11.1594C130.834 15.0667 131.348 21.151 131.166 30.3154C131.105 33.3824 130.996 37.2963 130.88 41.4385C130.418 58.0073 129.787 80.6637 131.16 84.6537C131.439 84.8556 131.811 84.9085 132.267 84.8059C134.134 84.3857 136.73 81.6596 138.055 78.725L138.795 77.0873L138.588 78.8705C138.429 80.2436 138.285 81.5305 138.149 82.7414C137.722 86.5495 137.385 89.5536 136.925 92.2831C136.629 94.0399 136.884 96.9546 138.571 99.3863L138.625 99.4624L138.62 99.5551C138.5 101.768 138.736 103.562 139.322 104.888C140.235 106.956 141.534 108.117 143.181 108.342C145.645 108.677 148.409 106.817 150.057 104.822C150.765 103.965 151.532 102.625 152.275 100.948L152.31 100.872L152.383 100.826C153.736 99.9885 155.12 98.8438 156.741 97.2325L156.771 97.2061C160.566 94.3906 164.003 94.7413 166.219 95.5353C169.696 96.7793 172.72 100.134 173.573 103.694C174.412 107.198 172.139 112.584 172.042 112.812C168.716 122.916 162.434 136.461 156.773 145.721L156.692 145.857H156.564C155.689 146.079 154.092 147.786 152.381 150.33L151.242 152.024L151.882 150.092C152.276 148.901 152.567 147.756 152.722 146.78C152.98 145.156 151.726 143.994 150.629 143.306C147.926 141.609 143.703 141.133 142.402 142.003C140.994 142.942 139.712 144.709 138.694 147.108C137.276 150.453 136.433 154.843 136.439 158.849C136.442 160.401 136.989 162.522 138.522 163.385C139.717 164.06 141.279 163.845 143.164 162.747C144.729 161.84 146.252 160.371 147.691 158.386L148.614 157.116L148.188 158.624C148.053 159.101 147.969 159.515 147.938 159.852C147.985 160.037 148.267 160.98 149.244 161.602C150.252 162.244 151.663 162.36 153.438 161.946C155.022 161.579 157.215 159.951 159.302 157.596L159.346 157.546L159.407 157.523C162.685 156.196 166.502 152.497 172.169 145.149L173.195 143.819L172.656 145.404C172.495 145.88 172.372 146.509 172.216 147.306C171.493 151.002 170.148 157.877 161.39 167.369C154.916 174.379 150.772 179.948 148.743 187.676C147.347 192.999 144.484 226.951 142.59 249.419C141.579 261.409 140.849 270.07 140.64 271Z" fill="#424242"/>
<path d="M138.584 78.9036C138.426 80.2667 138.283 81.5405 138.149 82.7414C137.722 86.5495 137.385 89.5536 136.925 92.2831C136.629 94.0399 136.884 96.9546 138.571 99.3863L138.625 99.4624L138.62 99.5551C138.5 101.768 138.736 103.562 139.322 104.888C140.235 106.956 141.534 108.117 143.181 108.342C145.645 108.677 148.409 106.817 150.057 104.822C150.765 103.965 151.532 102.625 152.275 100.948L152.31 100.872L152.383 100.826C153.721 99.9951 155.09 98.8702 156.687 97.2854C156.951 96.2466 159.885 84.4651 159.099 79.2476C158.437 74.8606 155.407 69.6035 149.045 69.2197C142.883 68.8491 140.519 73.352 139.018 77.8019C138.896 78.1658 138.75 78.5364 138.584 78.9036ZM143.793 108.938C143.564 108.938 143.335 108.921 143.105 108.892C141.251 108.637 139.806 107.366 138.809 105.107C138.196 103.72 137.943 101.874 138.057 99.6213C136.323 97.0704 136.063 94.0299 136.373 92.1904C136.831 89.4775 137.167 86.48 137.593 82.6819C137.728 81.4677 137.873 80.184 138.032 78.8076V78.7481L138.055 78.7183C138.221 78.3544 138.366 77.9904 138.487 77.6298C140.056 72.9781 142.54 68.2734 149.08 68.6672C155.346 69.0443 158.905 74.2121 159.653 79.1649C160.488 84.7099 157.345 96.9744 157.211 97.4939L157.192 97.5667L157.138 97.6196C155.515 99.2374 154.119 100.392 152.753 101.249C152.001 102.936 151.219 104.293 150.49 105.173C149.001 106.973 146.423 108.938 143.793 108.938Z" fill="#424242"/>
<path d="M144.469 141.576C143.57 141.576 142.829 141.715 142.402 142.003C140.994 142.942 139.712 144.709 138.694 147.108C137.276 150.453 136.433 154.843 136.439 158.849C136.442 160.401 136.989 162.522 138.522 163.385C139.718 164.06 141.28 163.845 143.164 162.75C144.729 161.84 146.252 160.371 147.691 158.386L148.614 157.116L148.188 158.624C148.053 159.101 147.969 159.515 147.938 159.852C147.985 160.037 148.267 160.98 149.244 161.602C150.252 162.244 151.663 162.36 153.438 161.946C155.022 161.579 157.215 159.951 159.302 157.596L159.346 157.546L159.407 157.523C162.682 156.196 166.494 152.504 172.151 145.172C172.749 143.912 173.637 142.284 174.664 140.402C177.288 135.598 180.553 129.619 181.068 125.834C181.603 121.884 180.194 117.527 177.561 114.989C176.4 113.871 174.499 112.624 171.996 112.955C168.649 123.062 162.404 136.511 156.773 145.721L156.692 145.857H156.564C155.689 146.079 154.092 147.789 152.381 150.33L151.242 152.024L151.882 150.092C152.276 148.901 152.567 147.756 152.722 146.78C152.98 145.156 151.726 143.994 150.629 143.306C148.813 142.165 146.31 141.576 144.469 141.576ZM140.038 164.325C139.385 164.325 138.787 164.173 138.244 163.865C136.504 162.883 135.882 160.55 135.879 158.849C135.873 154.773 136.733 150.304 138.178 146.893C139.254 144.358 140.569 142.559 142.089 141.543C143.684 140.478 148.229 141.143 150.929 142.84C152.705 143.955 153.516 145.348 153.275 146.863C153.188 147.412 153.06 148.008 152.897 148.636C153.958 147.21 155.309 145.662 156.353 145.341C161.979 136.114 168.207 122.675 171.518 112.617L171.571 112.458L171.74 112.432C173.938 112.084 176.143 112.852 177.952 114.592C180.705 117.246 182.18 121.791 181.622 125.91C181.094 129.795 177.802 135.823 175.156 140.666C174.126 142.552 173.236 144.183 172.645 145.434L172.613 145.487C166.917 152.871 163.043 156.623 159.68 158.009C157.531 160.421 155.249 162.092 153.566 162.486C151.631 162.935 150.071 162.793 148.93 162.059C147.648 161.238 147.391 159.974 147.381 159.921L147.374 159.885L147.377 159.849C147.381 159.799 147.386 159.746 147.392 159.693C146.13 161.251 144.806 162.436 143.448 163.227C142.19 163.958 141.049 164.325 140.038 164.325Z" fill="#424242"/>
<path d="M145.951 103.267C145.151 103.267 144.32 103.198 143.447 103.062C141.249 102.718 139.404 101.557 138.111 99.6974L138.571 99.3863C139.776 101.113 141.492 102.199 143.534 102.516C146.923 103.042 149.652 102.519 152.383 100.826L152.68 101.295C150.531 102.629 148.387 103.267 145.951 103.267Z" fill="#424242"/>
<path d="M138.03 78.8374V78.8341H138.59L138.03 78.8374Z" fill="#424242"/>
<path d="M155.728 88.7133C155.728 91.6975 154.307 97.0606 152.531 101.061C151.815 102.678 151.037 104.075 150.274 104.998C147.471 108.389 141.793 111.175 139.065 104.998C138.428 103.555 138.226 101.646 138.341 99.5419C138.73 92.6305 142.593 83.5984 146 82.0103C152.028 79.2047 155.728 84.5182 155.728 88.7133Z" fill="#424242"/>
<path d="M144.424 156.606C143.699 156.606 142.983 156.494 142.295 156.262C140.22 155.564 138.669 153.9 138.041 151.69C137.684 150.433 137.724 148.878 138.163 146.942C139.031 143.101 141.362 138.254 143.83 133.123C144.274 132.2 144.723 131.267 145.17 130.324C149.411 121.401 152.775 112.084 155.457 101.845L155.999 101.984C153.308 112.26 149.932 121.606 145.677 130.562C145.229 131.502 144.78 132.438 144.335 133.361C141.881 138.463 139.563 143.283 138.709 147.061C138.291 148.908 138.249 150.373 138.579 151.541C139.157 153.572 140.577 155.101 142.474 155.74C144.533 156.428 146.872 155.971 148.889 154.482L148.947 154.449C149.122 154.373 149.315 154.267 149.52 154.128C149.881 153.884 150.29 153.533 150.738 153.086C152.251 151.564 154.121 148.99 156.294 145.437L156.773 145.721C154.577 149.314 152.68 151.922 151.136 153.477C150.657 153.956 150.232 154.317 149.836 154.585C149.612 154.737 149.398 154.856 149.198 154.942C147.705 156.037 146.043 156.606 144.424 156.606Z" fill="#424242"/>
<path d="M152.998 146.823C152.842 147.809 152.554 148.954 152.148 150.178C151.821 151.177 151.412 152.226 150.937 153.281C150.825 153.526 150.71 153.778 150.59 154.022C149.84 155.587 148.939 157.146 147.919 158.548C146.573 160.404 145.015 161.996 143.306 162.988C138.156 165.986 136.165 161.959 136.159 158.85C136.154 155.045 136.934 150.545 138.436 147.002C139.409 144.706 140.685 142.813 142.246 141.771C144.467 140.289 153.697 142.42 152.998 146.823Z" fill="#424242"/>
<path d="M156.723 158.634C156.137 158.634 155.555 158.558 154.974 158.403C152.058 157.639 150.489 156.17 150.311 154.046C150.299 153.91 150.293 153.774 150.293 153.632H150.853C150.853 153.758 150.858 153.88 150.868 153.999C151.025 155.869 152.455 157.169 155.118 157.87C156.516 158.237 157.919 158.122 159.407 157.523L159.619 158.032C158.627 158.433 157.669 158.634 156.723 158.634Z" fill="#424242"/>
<path d="M164.103 149.017C163.893 151.69 161.893 155.088 159.513 157.778C157.499 160.05 155.214 161.817 153.502 162.214C148.341 163.415 147.656 159.872 147.656 159.872C147.686 159.488 147.779 159.045 147.919 158.548C148.26 157.354 148.892 155.878 149.678 154.357C150.405 152.944 151.267 151.488 152.148 150.178C153.784 147.746 155.485 145.811 156.531 145.579H156.534C159.905 144.835 164.291 146.628 164.103 149.017Z" fill="#424242"/>
<path d="M129.284 11.2455C128.112 7.68558 126.215 5.75011 123.311 5.75011C121.149 5.75011 119.723 7.34151 118.721 9.92212C118.559 3.86431 121.563 0 124.165 0C127.035 0 128.783 4.75759 129.284 11.2455Z" fill="#424242"/>
<path d="M32.1194 93.2029C32.7938 96.0317 37.0455 99.5486 41.5238 102.784V102.788C29.1044 97.9969 25.2275 90.8771 27.9547 86.983C30.6817 83.089 42.5814 85.8747 42.5814 85.8747V85.878C37.1489 86.6191 31.1797 89.2526 32.1194 93.2029Z" fill="#424242"/>
<path d="M53.9854 43.01C57.4085 44.7602 62.0748 43.5691 64.1752 40.4095C65.2867 38.7388 65.617 36.5452 65.0815 34.3981C64.5461 32.2509 63.2234 30.461 61.453 29.4916C58.9473 28.1186 56.2779 28.1451 53.9372 29.5644C51.3589 31.1326 49.6982 34.1102 49.8053 36.982C49.9007 39.5394 51.385 41.6833 53.9854 43.01ZM57.4443 44.3665C56.1588 44.3665 54.878 44.0886 53.7287 43.503C50.9412 42.077 49.3491 39.7677 49.2461 37.0018C49.1319 33.9382 50.8997 30.7621 53.6444 29.0946C56.1648 27.5661 59.034 27.533 61.7244 29.0086C63.6304 30.0507 65.0521 31.9697 65.6247 34.2657C66.1973 36.5618 65.8396 38.9141 64.6424 40.7139C63.0979 43.0365 60.2585 44.3665 57.4443 44.3665Z" fill="#424242"/>
<path d="M56.6387 37.9282C57.5226 38.3782 58.7304 38.0738 59.2766 37.2533C59.882 36.3434 59.536 34.9539 58.5714 34.4245C56.3134 33.1872 54.207 36.6842 56.6387 37.9282Z" fill="#424242"/>
<path d="M127.622 202.538C122.428 202.538 115.758 201.688 108.504 198.65L108.722 198.144C124.9 204.917 138.12 200.688 138.252 200.642L138.43 201.168C138.355 201.191 134.158 202.538 127.622 202.538Z" fill="#424242"/>
<path d="M128.035 217.218C125.573 217.218 122.646 216.963 118.663 216.228L118.766 215.682C126.776 217.165 130.472 216.675 134.751 216.106C135.873 215.957 137.033 215.801 138.314 215.679L138.368 216.232C137.097 216.354 135.942 216.506 134.825 216.655C132.626 216.946 130.579 217.218 128.035 217.218Z" fill="#424242"/>
<path d="M12.543 139.194C10.7859 139.194 9.46596 141.02 8.65504 142.595C8.56535 142.767 8.45691 142.972 8.33408 143.204C7.11553 145.513 3.87822 151.644 5.53922 153.483C6.93347 155.025 12.5051 154.327 15.8338 153.91C16.9416 153.771 17.8981 153.652 18.5193 153.625C19.9366 153.573 21.8847 153.341 22.4386 151.968C22.9132 150.79 22.0802 149.477 21.2027 148.345L15.9935 141.626C15.1009 140.474 14.1189 139.34 12.803 139.207C12.7153 139.197 12.6283 139.194 12.543 139.194ZM9.5774 154.995C7.59847 154.995 5.90702 154.717 5.12221 153.85C3.20318 151.73 6.33373 145.798 7.83809 142.949C7.95992 142.717 8.06768 142.516 8.1567 142.344C9.08676 140.537 10.6597 138.43 12.8602 138.658C14.3977 138.813 15.4704 140.044 16.4372 141.292L21.6465 148.008C22.6197 149.262 23.5364 150.737 22.958 152.173C22.2837 153.844 20.1143 154.118 18.5413 154.178C17.9443 154.201 16.9988 154.32 15.9041 154.459C13.9399 154.704 11.6072 154.995 9.5774 154.995Z" fill="#424242"/>
<path d="M10.7628 148.613C7.07469 148.613 3.3916 147.928 0 146.542L0.213858 146.029C8.04994 149.235 17.4747 148.61 24.8091 144.405L25.0899 144.881C20.7823 147.353 15.7679 148.613 10.7628 148.613Z" fill="#424242"/>
<path d="M208.946 170.035L205.518 162.601L197.568 166.631L197.313 166.138L205.784 161.844L209.455 169.804L208.946 170.035Z" fill="#424242"/>
<path d="M197.077 188.374L196.544 188.209L204.832 162.271L205.366 162.439L197.077 188.374Z" fill="#424242"/>
<path d="M204.062 183.144L193.972 179.038L194.185 178.528L204.275 182.634L204.062 183.144Z" fill="#424242"/>
<path d="M202.855 175.306L198.602 173.033L198.868 172.547L203.121 174.819L202.855 175.306Z" fill="#424242"/>
<path d="M55.3954 221.072L54.9713 210.078L55.5302 210.055L55.9543 221.049L55.3954 221.072Z" fill="#424242"/>
<path d="M50.2478 215.788L50.215 215.236C52.3221 215.113 53.9633 215.087 55.5504 215.064C57.1317 215.041 58.7666 215.017 60.8616 214.895L60.8941 215.448C58.7873 215.57 57.1461 215.593 55.5587 215.616C53.9777 215.639 52.3428 215.666 50.2478 215.788Z" fill="#424242"/>
<path d="M200.349 73.3256L199.688 52.0091C199.632 50.1796 199.493 48.4393 198.439 47.235C197.853 46.5667 196.794 46.2094 195.863 46.3649C195.482 46.4278 194.8 46.6428 194.514 47.3541L193.994 47.149C194.281 46.4344 194.911 45.9613 195.77 45.819C196.9 45.6304 198.143 46.0539 198.862 46.8744C200.036 48.2143 200.187 50.0605 200.248 51.9926L200.909 73.3091L200.349 73.3256Z" fill="#424242"/>
<path d="M225.321 89.5833C222.801 89.5833 220.18 88.733 217.998 87.0887C214.962 84.8059 212.722 81.0607 211.689 76.5512C210.786 72.6009 210.813 68.6341 210.936 64.2305L210.939 64.1313C211.005 61.7525 211.073 59.2943 210.365 57.028C209.746 55.0495 208.202 52.7038 205.72 52.0554C204.518 51.741 203.095 51.9958 202.007 52.717C201.098 53.3192 200.528 54.1694 200.402 55.1124L199.848 55.0396C199.995 53.9379 200.651 52.9486 201.696 52.2571C202.914 51.4499 204.511 51.1686 205.863 51.5227C208.124 52.1116 210.054 54.1595 210.899 56.8658C211.635 59.2182 211.565 61.7227 211.497 64.1445L211.495 64.2437C211.374 68.6109 211.346 72.5414 212.235 76.4288C213.239 80.8126 215.406 84.4453 218.337 86.6487C221.781 89.2425 226.361 89.7752 229.734 87.9754L230 88.4617C228.587 89.2161 226.976 89.5833 225.321 89.5833Z" fill="#424242"/>
<path d="M53.8609 110.083C52.8696 110.083 51.8866 109.987 50.9285 109.785L51.0453 109.242C55.5426 110.192 60.6297 108.766 64.3221 105.524C67.1572 103.036 68.69 99.8429 68.4229 96.9844L68.9798 96.9347C69.2676 100.012 67.7054 103.294 64.6936 105.937C61.6551 108.607 57.6996 110.083 53.8609 110.083Z" fill="#424242"/>
<path d="M55.7274 112.134C54.9466 112.134 54.1695 112.081 53.3994 111.972L53.4797 111.423C60.9915 112.504 69.3265 107.992 72.4571 101.15L72.9668 101.378C70.0601 107.73 62.799 112.134 55.7274 112.134Z" fill="#424242"/>
<path d="M115.624 169.94L115.066 169.9L115.135 168.964C115.827 159.716 116.873 145.741 91.9904 116.26L92.4201 115.906C117.448 145.559 116.392 159.667 115.693 169.003L115.624 169.94Z" fill="#424242"/>
<path d="M140.358 141.579C118.114 140.878 105.991 127.538 96.2508 116.819C95.5975 116.101 94.9543 115.393 94.3187 114.701L94.733 114.331C95.3692 115.022 96.0132 115.73 96.6668 116.451C106.337 127.091 118.37 140.332 140.376 141.027L140.358 141.579Z" fill="#424242"/>
<path d="M145.381 130.718C121.658 127.168 104.917 112.746 100.923 106.711L101.39 106.41C105.343 112.379 121.927 126.648 145.465 130.168L145.381 130.718Z" fill="#424242"/>
<path d="M121.492 67.0626C118.565 67.0626 115.661 66.7152 113.579 65.9245L113.78 65.4051C117.971 66.9998 125.931 66.7152 129.982 65.4018L130.156 65.9278C127.946 66.6424 124.705 67.0626 121.492 67.0626Z" fill="#424242"/>
<path d="M123.884 56.9321C121.703 56.9321 120.069 56.5318 118.625 56.0487L118.805 55.526C121.291 56.3564 124.369 56.9288 130 55.5194L130.137 56.0553C127.61 56.6872 125.581 56.9321 123.884 56.9321Z" fill="#424242"/>
<path d="M163.138 133.04C161.344 129.728 153.687 125.206 148.012 124.938L148.039 124.385C153.547 124.643 161.562 128.961 163.631 132.779L163.138 133.04Z" fill="#424242"/>
<path d="M165.097 128.928C160.179 120.905 153.815 119.125 150.459 118.777L150.517 118.228C153.976 118.586 160.532 120.412 165.576 128.643L165.097 128.928Z" fill="#424242"/>
</svg>
